<svg xmlns="http://www.w3.org/2000/svg" width="14.998" height="14.999" viewBox="0 0 14.998 14.999">
  <path id="home_7_" data-name="home(7)" d="M15.095,6.524h0L8.975.4A1.381,1.381,0,0,0,7.022.4L.907,6.52.9,6.526a1.38,1.38,0,0,0,.919,2.353l.043,0h.244v4.5A1.618,1.618,0,0,0,3.722,15H6.116a.439.439,0,0,0,.439-.439V11.03a.738.738,0,0,1,.737-.737H8.7a.738.738,0,0,1,.737.737v3.53A.439.439,0,0,0,9.881,15h2.394a1.618,1.618,0,0,0,1.616-1.616v-4.5h.226a1.381,1.381,0,0,0,.977-2.357Zm-.622,1.331A.5.5,0,0,1,14.117,8h-.666a.439.439,0,0,0-.439.439v4.942a.738.738,0,0,1-.737.737H10.321V11.03A1.618,1.618,0,0,0,8.7,9.414H7.293A1.618,1.618,0,0,0,5.676,11.03V14.12H3.722a.738.738,0,0,1-.737-.737V8.441A.439.439,0,0,0,2.545,8H1.87a.5.5,0,0,1-.346-.856h0L7.644,1.026a.5.5,0,0,1,.71,0L14.47,7.143l0,0A.5.5,0,0,1,14.472,7.855Zm0,0" transform="translate(-0.499)" fill="#122823"/>
</svg>
