<svg xmlns="http://www.w3.org/2000/svg" xmlns:xlink="http://www.w3.org/1999/xlink" width="18" height="18" viewBox="0 0 18 18">
  <defs>
    <clipPath id="clip-path">
      <rect width="18" height="18" fill="none"/>
    </clipPath>
    <clipPath id="clip-path-2">
      <path id="path891" d="M0-682.665H18v18H0Z" transform="translate(0 682.665)"/>
    </clipPath>
  </defs>
  <g id="messenger" clip-path="url(#clip-path)">
    <g id="messenger-2" data-name="messenger" transform="translate(0 -0.002)">
      <g id="g885" transform="translate(0 0.002)">
        <g id="g887">
          <g id="g889" clip-path="url(#clip-path-2)">
            <g id="g895" transform="translate(0.703 0.703)">
              <path id="path897" d="M-306.369,0a8.3,8.3,0,0,0-8.3,8.3,8.257,8.257,0,0,0,1.257,4.392l-1.257,3.9,3.9-1.257a8.257,8.257,0,0,0,4.392,1.257,8.3,8.3,0,0,0,8.3-8.3A8.3,8.3,0,0,0-306.369,0Z" transform="translate(314.666)" fill="none" stroke="#fff" stroke-linecap="round" stroke-linejoin="round" stroke-miterlimit="10" stroke-width="1"/>
            </g>
            <g id="g899" transform="translate(8.121 8.121)">
              <path id="path901" d="M-64.909-32.454a.879.879,0,0,1-.879.879.879.879,0,0,1-.879-.879.879.879,0,0,1,.879-.879.879.879,0,0,1,.879.879" transform="translate(66.667 33.333)" fill="#fff"/>
            </g>
            <g id="g903" transform="translate(11.637 8.121)">
              <path id="path905" d="M-64.909-32.454a.879.879,0,0,1-.879.879.879.879,0,0,1-.879-.879.879.879,0,0,1,.879-.879.879.879,0,0,1,.879.879" transform="translate(66.667 33.333)" fill="#fff"/>
            </g>
            <g id="g907" transform="translate(4.605 8.121)">
              <path id="path909" d="M-64.909-32.454a.879.879,0,0,1-.879.879.879.879,0,0,1-.879-.879.879.879,0,0,1,.879-.879.879.879,0,0,1,.879.879" transform="translate(66.667 33.333)" fill="#fff"/>
            </g>
          </g>
        </g>
      </g>
    </g>
  </g>
</svg>
