<svg xmlns="http://www.w3.org/2000/svg" xmlns:xlink="http://www.w3.org/1999/xlink" width="18" height="18" viewBox="0 0 18 18">
  <defs>
    <clipPath id="clip-path">
      <path id="path3261" d="M0-682.665H18v18H0Z" transform="translate(0 682.665)"/>
    </clipPath>
  </defs>
  <g id="g3255" transform="translate(0 682.665)">
    <g id="g3257" transform="translate(0 -682.665)">
      <g id="g3259" clip-path="url(#clip-path)">
        <g id="g3265" transform="translate(0.352 1.449)">
          <path id="path3267" d="M-172.9-146.929a1.179,1.179,0,0,1-.837-.349l-.01-.011-3.118-3.328-.963,1.981a.5.5,0,0,1-.041.069,1.182,1.182,0,0,1-1.222.474,1.164,1.164,0,0,1-.91-.937l-.835-4.445-2.947-1.426a1.18,1.18,0,0,1-.7-1.118,1.176,1.176,0,0,1,.775-1.076l1.433-.528a.5.5,0,0,1,.642.3.5.5,0,0,1-.3.642l-1.434.528a.171.171,0,0,0-.12.166.18.18,0,0,0,.11.177l.019.009,3.182,1.54a.5.5,0,0,1,.274.358l.882,4.693a.171.171,0,0,0,.14.144.181.181,0,0,0,.173-.05l1.258-2.588a.5.5,0,0,1,.375-.276.5.5,0,0,1,.44.152l3.609,3.851a.177.177,0,0,0,.162.046.183.183,0,0,0,.135-.111l5.524-13.735a.171.171,0,0,0-.039-.193.18.18,0,0,0-.195-.048l-11.525,4.243a.5.5,0,0,1-.642-.3.5.5,0,0,1,.3-.642l11.525-4.243a1.17,1.17,0,0,1,1.257.29,1.167,1.167,0,0,1,.25,1.262l-5.524,13.735a1.18,1.18,0,0,1-.863.719A1.188,1.188,0,0,1-172.9-146.929Z" transform="translate(183.985 162.531)" fill="#fff"/>
        </g>
        <g id="g3269" transform="translate(3.989 1.758)">
          <path id="path3271" d="M3.35-306.569a.5.5,0,0,1-.341-.134.5.5,0,0,1-.024-.707l7.408-7.936L.266-309a.5.5,0,0,1-.689-.158.5.5,0,0,1,.158-.689l13.368-8.38a.5.5,0,0,1,.651.105.5.5,0,0,1-.02.659L3.716-306.728A.5.5,0,0,1,3.35-306.569Z" transform="translate(0 317.802)" fill="#fff"/>
        </g>
        <g id="g3273" transform="translate(5.953 13.598)">
          <path id="path3275" d="M0-60.356a.5.5,0,0,1-.407-.209.5.5,0,0,1,.115-.7l2.3-1.648a.5.5,0,0,1,.7.115.5.5,0,0,1-.115.7l-2.3,1.648A.5.5,0,0,1,0-60.356Z" transform="translate(0 62.504)" fill="#fff"/>
        </g>
        <g id="g3277" transform="translate(3.718 6.281)">
          <path id="path3279" d="M0,.5A.5.5,0,0,1-.5,0,.5.5,0,0,1,0-.5H0A.5.5,0,0,1,.5,0,.5.5,0,0,1,0,.5Z" fill="#fff"/>
        </g>
      </g>
    </g>
  </g>
</svg>
