<svg xmlns="http://www.w3.org/2000/svg" xmlns:xlink="http://www.w3.org/1999/xlink" width="47" height="50" viewBox="0 0 47 50">
  <defs>
    <clipPath id="clip-path">
      <rect id="長方形_258" data-name="長方形 258" width="47" height="50" transform="translate(19598 2647)" fill="#fff" stroke="#707070" stroke-width="1"/>
    </clipPath>
  </defs>
  <g id="マスクグループ_10" data-name="マスクグループ 10" transform="translate(-19598 -2647)" opacity="0.2" clip-path="url(#clip-path)">
    <g id="_x31_29" transform="translate(19598 2647)">
      <g id="グループ_1405" data-name="グループ 1405" transform="translate(0 41.156)">
        <g id="グループ_1404" data-name="グループ 1404">
          <g id="グループ_1403" data-name="グループ 1403">
            <g id="グループ_1402" data-name="グループ 1402">
              <g id="グループ_1401" data-name="グループ 1401">
                <path id="パス_287" data-name="パス 287" d="M57.62,42.756,57.605,45.4,32.167,60.189,10.62,47.743l.015-2.649L36.073,30.311Z" transform="translate(-10.62 -30.311)" fill="#bf7d5a"/>
              </g>
            </g>
          </g>
        </g>
      </g>
      <g id="グループ_1638" data-name="グループ 1638" transform="translate(0.007 0)">
        <g id="グループ_1634" data-name="グループ 1634">
          <g id="グループ_1542" data-name="グループ 1542">
            <g id="グループ_1541" data-name="グループ 1541">
              <g id="グループ_1459" data-name="グループ 1459">
                <g id="グループ_1416" data-name="グループ 1416" transform="translate(0 41.154)">
                  <g id="グループ_1415" data-name="グループ 1415">
                    <g id="グループ_1408" data-name="グループ 1408" transform="translate(21.541 12.449)">
                      <g id="グループ_1407" data-name="グループ 1407">
                        <g id="グループ_1406" data-name="グループ 1406">
                          <path id="パス_288" data-name="パス 288" d="M50.626,38.722l-.013,2.65L25.181,56.151l.013-2.65Z" transform="translate(-25.181 -38.722)" fill="#bf7d5a"/>
                        </g>
                      </g>
                    </g>
                    <g id="グループ_1411" data-name="グループ 1411" transform="translate(0 14.779)">
                      <g id="グループ_1410" data-name="グループ 1410">
                        <g id="グループ_1409" data-name="グループ 1409">
                          <path id="パス_289" data-name="パス 289" d="M32.179,52.745l-.013,2.65L10.624,42.946l.013-2.65Z" transform="translate(-10.624 -40.296)" fill="#aa6256"/>
                        </g>
                      </g>
                    </g>
                    <g id="グループ_1414" data-name="グループ 1414" transform="translate(0.013)">
                      <g id="グループ_1413" data-name="グループ 1413">
                        <g id="グループ_1412" data-name="グループ 1412">
                          <path id="パス_290" data-name="パス 290" d="M57.607,42.758,32.175,57.538,10.633,45.089,36.065,30.309Z" transform="translate(-10.633 -30.309)" fill="#dba660"/>
                        </g>
                      </g>
                    </g>
                  </g>
                </g>
                <g id="グループ_1458" data-name="グループ 1458" transform="translate(3.735)">
                  <g id="グループ_1423" data-name="グループ 1423" transform="translate(0.117 43.309)">
                    <g id="グループ_1419" data-name="グループ 1419">
                      <g id="グループ_1418" data-name="グループ 1418">
                        <g id="グループ_1417" data-name="グループ 1417">
                          <path id="パス_291" data-name="パス 291" d="M31.02,52.644,13.228,42.3l24.7-10.538,14.578,8.472Z" transform="translate(-13.228 -31.766)" fill="#adb1c2"/>
                        </g>
                      </g>
                    </g>
                    <g id="グループ_1422" data-name="グループ 1422" transform="translate(17.792 8.472)">
                      <g id="グループ_1421" data-name="グループ 1421">
                        <g id="グループ_1420" data-name="グループ 1420">
                          <path id="パス_292" data-name="パス 292" d="M46.74,37.49l.006,2.125L25.257,52.022,25.251,49.9Z" transform="translate(-25.251 -37.49)" fill="#c9cee2"/>
                        </g>
                      </g>
                    </g>
                  </g>
                  <g id="グループ_1427" data-name="グループ 1427" transform="translate(0.082 30.912)">
                    <g id="グループ_1426" data-name="グループ 1426">
                      <g id="グループ_1425" data-name="グループ 1425">
                        <g id="グループ_1424" data-name="グループ 1424">
                          <path id="パス_293" data-name="パス 293" d="M31,44.266,13.2,33.926l24.7-10.538L52.485,31.86Z" transform="translate(-13.204 -23.388)" fill="#e3e7f0"/>
                        </g>
                      </g>
                    </g>
                  </g>
                  <g id="グループ_1431" data-name="グループ 1431" transform="translate(0.076 28.786)">
                    <g id="グループ_1430" data-name="グループ 1430">
                      <g id="グループ_1429" data-name="グループ 1429">
                        <g id="グループ_1428" data-name="グループ 1428">
                          <path id="パス_294" data-name="パス 294" d="M30.993,42.83,13.2,32.49,37.9,21.952l14.578,8.472Z" transform="translate(-13.2 -21.952)" fill="#adb1c2"/>
                        </g>
                      </g>
                    </g>
                  </g>
                  <g id="グループ_1435" data-name="グループ 1435" transform="translate(0.041 16.39)">
                    <g id="グループ_1434" data-name="グループ 1434">
                      <g id="グループ_1433" data-name="グループ 1433">
                        <g id="グループ_1432" data-name="グループ 1432">
                          <path id="パス_295" data-name="パス 295" d="M30.969,34.453,13.176,24.113l24.7-10.538,14.578,8.472Z" transform="translate(-13.176 -13.575)" fill="#e3e7f0"/>
                        </g>
                      </g>
                    </g>
                  </g>
                  <g id="グループ_1439" data-name="グループ 1439" transform="translate(0.035 14.265)">
                    <g id="グループ_1438" data-name="グループ 1438">
                      <g id="グループ_1437" data-name="グループ 1437">
                        <g id="グループ_1436" data-name="グループ 1436">
                          <path id="パス_296" data-name="パス 296" d="M30.965,33.017,13.172,22.677l24.7-10.538L52.453,20.61Z" transform="translate(-13.172 -12.139)" fill="#adb1c2"/>
                        </g>
                      </g>
                    </g>
                  </g>
                  <g id="グループ_1457" data-name="グループ 1457">
                    <g id="グループ_1442" data-name="グループ 1442" transform="translate(0.002 12.403)">
                      <g id="グループ_1441" data-name="グループ 1441">
                        <g id="グループ_1440" data-name="グループ 1440">
                          <path id="パス_297" data-name="パス 297" d="M13.268,54.447V52.331l-.118-41.45A86.662,86.662,0,0,1,30.938,21.225a384.762,384.762,0,0,1,.118,41.436l.015,2.131Z" transform="translate(-13.15 -10.881)" fill="#b0b8cf"/>
                        </g>
                      </g>
                    </g>
                    <g id="グループ_1453" data-name="グループ 1453">
                      <g id="グループ_1444" data-name="グループ 1444">
                        <g id="グループ_1443" data-name="グループ 1443">
                          <path id="パス_298" data-name="パス 298" d="M30.941,25.246,13.148,14.906,34.637,2.5,52.43,12.839C49.072,18.216,39.675,21.623,30.941,25.246Z" transform="translate(-13.148 -2.499)" fill="#e3e7f0"/>
                        </g>
                      </g>
                      <g id="グループ_1452" data-name="グループ 1452" transform="translate(1.979 1.146)">
                        <g id="グループ_1449" data-name="グループ 1449">
                          <g id="グループ_1446" data-name="グループ 1446">
                            <g id="グループ_1445" data-name="グループ 1445">
                              <path id="パス_299" data-name="パス 299" d="M14.485,14.537l1.7.987L33.994,5.241V3.274Z" transform="translate(-14.485 -3.274)" fill="#c9cee2"/>
                            </g>
                          </g>
                          <g id="グループ_1448" data-name="グループ 1448" transform="translate(19.508)">
                            <g id="グループ_1447" data-name="グループ 1447">
                              <path id="パス_300" data-name="パス 300" d="M27.668,3.274V5.241l14.117,8.2,1.7-.98Z" transform="translate(-27.668 -3.274)" fill="#b0b8cf"/>
                            </g>
                          </g>
                        </g>
                        <g id="グループ_1451" data-name="グループ 1451" transform="translate(1.698 1.967)">
                          <g id="グループ_1450" data-name="グループ 1450">
                            <path id="パス_301" data-name="パス 301" d="M47.561,12.807,33.443,4.6,15.633,14.886l14.117,8.2Z" transform="translate(-15.633 -4.603)" fill="#4c5c75"/>
                          </g>
                        </g>
                      </g>
                    </g>
                    <g id="グループ_1456" data-name="グループ 1456" transform="translate(17.79 10.346)">
                      <g id="グループ_1455" data-name="グループ 1455">
                        <g id="グループ_1454" data-name="グループ 1454">
                          <path id="パス_302" data-name="パス 302" d="M46.776,50.926l-21.487,12.4L25.259,52.3l-.015.015L25.214,37.8V36.409L25.17,21.892l21.487-12.4L46.7,24.008v1.376l.03,13.156.015-.015Z" transform="translate(-25.17 -9.491)" fill="#c9cee2"/>
                        </g>
                      </g>
                    </g>
                  </g>
                </g>
              </g>
              <g id="グループ_1486" data-name="グループ 1486" transform="translate(24.31 15.46)">
                <g id="グループ_1485" data-name="グループ 1485">
                  <g id="グループ_1484" data-name="グループ 1484">
                    <g id="グループ_1471" data-name="グループ 1471" transform="translate(9.724)">
                      <g id="グループ_1466" data-name="グループ 1466">
                        <g id="グループ_1461" data-name="グループ 1461" transform="translate(0 0.641)">
                          <g id="グループ_1460" data-name="グループ 1460">
                            <path id="パス_303" data-name="パス 303" d="M33.638,16.314v4.6c9.321-5.354,1.5-.865,5.105-2.935v-4.6Z" transform="translate(-33.623 -13.379)" fill="#423d9b"/>
                          </g>
                        </g>
                        <g id="グループ_1463" data-name="グループ 1463" transform="translate(5.127)">
                          <g id="グループ_1462" data-name="グループ 1462">
                            <path id="パス_304" data-name="パス 304" d="M37.087,13.583l1.109-.637v5.67l-1.109-.438Z" transform="translate(-37.087 -12.946)" fill="#f3f1fc"/>
                          </g>
                        </g>
                        <g id="グループ_1465" data-name="グループ 1465" transform="translate(0.015 5.233)">
                          <g id="グループ_1464" data-name="グループ 1464">
                            <path id="パス_305" data-name="パス 305" d="M38.745,16.482l1.109.438h0l-6.22,3.574V19.419Z" transform="translate(-33.633 -16.482)" fill="#fff"/>
                          </g>
                        </g>
                      </g>
                    </g>
                    <g id="グループ_1483" data-name="グループ 1483" transform="translate(0 5.586)">
                      <g id="グループ_1478" data-name="グループ 1478">
                        <g id="グループ_1473" data-name="グループ 1473" transform="translate(0 0.641)">
                          <g id="グループ_1472" data-name="グループ 1472">
                            <path id="パス_308" data-name="パス 308" d="M27.052,20.089v4.6c9.321-5.354,1.5-.865,5.105-2.935v-4.6C32.008,17.24,32.994,16.672,27.052,20.089Z" transform="translate(-27.052 -17.154)" fill="#423d9b"/>
                          </g>
                        </g>
                        <g id="グループ_1475" data-name="グループ 1475" transform="translate(5.112)">
                          <g id="グループ_1474" data-name="グループ 1474">
                            <path id="パス_309" data-name="パス 309" d="M30.506,17.358l1.109-.637v5.67l-1.109-.438Z" transform="translate(-30.506 -16.721)" fill="#f3f1fc"/>
                          </g>
                        </g>
                        <g id="グループ_1477" data-name="グループ 1477" transform="translate(0 5.233)">
                          <g id="グループ_1476" data-name="グループ 1476">
                            <path id="パス_310" data-name="パス 310" d="M32.163,20.257l1.109.438h0l-6.22,3.574V23.194Z" transform="translate(-27.052 -20.257)" fill="#fff"/>
                          </g>
                        </g>
                      </g>
                    </g>
                  </g>
                </g>
              </g>
              <g id="グループ_1513" data-name="グループ 1513" transform="translate(24.31 25.016)">
                <g id="グループ_1512" data-name="グループ 1512">
                  <g id="グループ_1511" data-name="グループ 1511">
                    <g id="グループ_1498" data-name="グループ 1498" transform="translate(9.724)">
                      <g id="グループ_1493" data-name="グループ 1493">
                        <g id="グループ_1488" data-name="グループ 1488" transform="translate(0 0.641)">
                          <g id="グループ_1487" data-name="グループ 1487">
                            <path id="パス_313" data-name="パス 313" d="M33.638,22.771v4.6c9.321-5.354,1.5-.865,5.105-2.935v-4.6Z" transform="translate(-33.623 -19.837)" fill="#423d9b"/>
                          </g>
                        </g>
                        <g id="グループ_1490" data-name="グループ 1490" transform="translate(5.127)">
                          <g id="グループ_1489" data-name="グループ 1489">
                            <path id="パス_314" data-name="パス 314" d="M37.087,20.041,38.2,19.4v5.67l-1.109-.438Z" transform="translate(-37.087 -19.404)" fill="#f3f1fc"/>
                          </g>
                        </g>
                        <g id="グループ_1492" data-name="グループ 1492" transform="translate(0.015 5.233)">
                          <g id="グループ_1491" data-name="グループ 1491">
                            <path id="パス_315" data-name="パス 315" d="M38.745,22.939l1.109.438h0l-6.22,3.574V25.877Z" transform="translate(-33.633 -22.939)" fill="#fff"/>
                          </g>
                        </g>
                      </g>
                    </g>
                    <g id="グループ_1510" data-name="グループ 1510" transform="translate(0 5.586)">
                      <g id="グループ_1505" data-name="グループ 1505">
                        <g id="グループ_1500" data-name="グループ 1500" transform="translate(0 0.64)">
                          <g id="グループ_1499" data-name="グループ 1499">
                            <path id="パス_318" data-name="パス 318" d="M27.052,26.546v4.6c9.321-5.354,1.5-.865,5.105-2.935v-4.6Z" transform="translate(-27.052 -23.611)" fill="#423d9b"/>
                          </g>
                        </g>
                        <g id="グループ_1502" data-name="グループ 1502" transform="translate(5.112)">
                          <g id="グループ_1501" data-name="グループ 1501">
                            <path id="パス_319" data-name="パス 319" d="M30.506,23.815l1.109-.637v5.67l-1.109-.438Z" transform="translate(-30.506 -23.178)" fill="#f3f1fc"/>
                          </g>
                        </g>
                        <g id="グループ_1504" data-name="グループ 1504" transform="translate(0 5.233)">
                          <g id="グループ_1503" data-name="グループ 1503">
                            <path id="パス_320" data-name="パス 320" d="M32.163,26.714l1.109.438h0l-6.22,3.574V29.651Z" transform="translate(-27.052 -26.714)" fill="#fff"/>
                          </g>
                        </g>
                      </g>
                    </g>
                  </g>
                </g>
              </g>
              <g id="グループ_1540" data-name="グループ 1540" transform="translate(24.31 34.572)">
                <g id="グループ_1539" data-name="グループ 1539">
                  <g id="グループ_1538" data-name="グループ 1538">
                    <g id="グループ_1525" data-name="グループ 1525" transform="translate(9.739)">
                      <g id="グループ_1520" data-name="グループ 1520">
                        <g id="グループ_1515" data-name="グループ 1515" transform="translate(0 0.64)">
                          <g id="グループ_1514" data-name="グループ 1514">
                            <path id="パス_323" data-name="パス 323" d="M33.633,29.229v4.6c9.321-5.354,1.5-.865,5.105-2.935v-4.6Z" transform="translate(-33.633 -26.294)" fill="#423d9b"/>
                          </g>
                        </g>
                        <g id="グループ_1517" data-name="グループ 1517" transform="translate(5.112)">
                          <g id="グループ_1516" data-name="グループ 1516">
                            <path id="パス_324" data-name="パス 324" d="M37.087,26.5l1.109-.637v5.67l-1.109-.438Z" transform="translate(-37.087 -25.861)" fill="#f3f1fc"/>
                          </g>
                        </g>
                        <g id="グループ_1519" data-name="グループ 1519" transform="translate(0 5.233)">
                          <g id="グループ_1518" data-name="グループ 1518">
                            <path id="パス_325" data-name="パス 325" d="M38.745,29.4l1.109.438h0l-6.22,3.574V32.334Z" transform="translate(-33.633 -29.397)" fill="#fff"/>
                          </g>
                        </g>
                      </g>
                    </g>
                    <g id="グループ_1537" data-name="グループ 1537" transform="translate(0 5.586)">
                      <g id="グループ_1532" data-name="グループ 1532">
                        <g id="グループ_1527" data-name="グループ 1527" transform="translate(0 0.64)">
                          <g id="グループ_1526" data-name="グループ 1526">
                            <path id="パス_328" data-name="パス 328" d="M27.052,33v4.6c9.321-5.354,1.5-.865,5.105-2.935v-4.6Z" transform="translate(-27.052 -30.068)" fill="#423d9b"/>
                          </g>
                        </g>
                        <g id="グループ_1529" data-name="グループ 1529" transform="translate(5.112)">
                          <g id="グループ_1528" data-name="グループ 1528">
                            <path id="パス_329" data-name="パス 329" d="M30.506,30.273l1.109-.637v5.67l-1.109-.438Z" transform="translate(-30.506 -29.636)" fill="#f3f1fc"/>
                          </g>
                        </g>
                        <g id="グループ_1531" data-name="グループ 1531" transform="translate(0 5.233)">
                          <g id="グループ_1530" data-name="グループ 1530">
                            <path id="パス_330" data-name="パス 330" d="M32.163,33.172l1.109.438h0l-6.22,3.574V36.109Z" transform="translate(-27.052 -33.172)" fill="#fff"/>
                          </g>
                        </g>
                      </g>
                    </g>
                  </g>
                </g>
              </g>
            </g>
          </g>
          <g id="グループ_1557" data-name="グループ 1557" transform="translate(6.046 18.586)">
            <g id="グループ_1547" data-name="グループ 1547">
              <g id="グループ_1544" data-name="グループ 1544">
                <g id="グループ_1543" data-name="グループ 1543">
                  <path id="パス_333" data-name="パス 333" d="M15.616,15.564l-.875-.505L14.71,28.207l.877-.507Z" transform="translate(-14.71 -15.059)" fill="#c9cee2"/>
                </g>
              </g>
              <g id="グループ_1546" data-name="グループ 1546" transform="translate(0 12.642)">
                <g id="グループ_1545" data-name="グループ 1545">
                  <path id="パス_334" data-name="パス 334" d="M15.587,23.6h0l-.877.507,5.468,3.157,0-1.012Z" transform="translate(-14.71 -23.601)" fill="#fff"/>
                </g>
              </g>
            </g>
            <g id="グループ_1552" data-name="グループ 1552" transform="translate(7.78 4.493)">
              <g id="グループ_1549" data-name="グループ 1549">
                <g id="グループ_1548" data-name="グループ 1548">
                  <path id="パス_335" data-name="パス 335" d="M20.873,18.6,20,18.095l-.031,13.148.877-.506Z" transform="translate(-19.968 -18.095)" fill="#c9cee2"/>
                </g>
              </g>
              <g id="グループ_1551" data-name="グループ 1551" transform="translate(0 12.642)">
                <g id="グループ_1550" data-name="グループ 1550">
                  <path id="パス_336" data-name="パス 336" d="M25.438,29.289l-4.593-2.652-.877.506L25.435,30.3Z" transform="translate(-19.968 -26.637)" fill="#fff"/>
                </g>
              </g>
            </g>
            <g id="グループ_1554" data-name="グループ 1554" transform="translate(0.873 0.506)">
              <g id="グループ_1553" data-name="グループ 1553">
                <path id="パス_337" data-name="パス 337" d="M19.932,18.05c0,.154-.03,12.284-.03,12.135-9.329-5.383.562.323-4.6-2.649,0-.152.022-9.1.03-12.135Z" transform="translate(-15.3 -15.401)" fill="#423d9b"/>
              </g>
            </g>
            <g id="グループ_1556" data-name="グループ 1556" transform="translate(8.658 4.999)">
              <g id="グループ_1555" data-name="グループ 1555">
                <path id="パス_338" data-name="パス 338" d="M20.589,18.437,20.56,30.573l4.593,2.652L25.192,21.1Z" transform="translate(-20.56 -18.437)" fill="#423d9b"/>
              </g>
            </g>
          </g>
          <g id="グループ_1582" data-name="グループ 1582" transform="translate(6.046 36.111)">
            <g id="グループ_1572" data-name="グループ 1572">
              <g id="グループ_1569" data-name="グループ 1569">
                <g id="グループ_1568" data-name="グループ 1568">
                  <path id="パス_343" data-name="パス 343" d="M15.616,27.407l-.875-.505L14.71,40.05l.877-.507Z" transform="translate(-14.71 -26.901)" fill="#c9cee2"/>
                </g>
              </g>
              <g id="グループ_1571" data-name="グループ 1571" transform="translate(0 12.642)">
                <g id="グループ_1570" data-name="グループ 1570">
                  <path id="パス_344" data-name="パス 344" d="M15.587,35.444h0l-.877.507,5.468,3.157,0-1.012Z" transform="translate(-14.71 -35.444)" fill="#fff"/>
                </g>
              </g>
            </g>
            <g id="グループ_1577" data-name="グループ 1577" transform="translate(7.78 4.493)">
              <g id="グループ_1574" data-name="グループ 1574">
                <g id="グループ_1573" data-name="グループ 1573">
                  <path id="パス_345" data-name="パス 345" d="M20.873,30.443,20,29.937l-.031,13.148.877-.506Z" transform="translate(-19.968 -29.937)" fill="#c9cee2"/>
                </g>
              </g>
              <g id="グループ_1576" data-name="グループ 1576" transform="translate(0 12.642)">
                <g id="グループ_1575" data-name="グループ 1575">
                  <path id="パス_346" data-name="パス 346" d="M25.438,41.132,20.845,38.48l-.877.506,5.468,3.157Z" transform="translate(-19.968 -38.48)" fill="#fff"/>
                </g>
              </g>
            </g>
            <g id="グループ_1579" data-name="グループ 1579" transform="translate(0.873 0.504)">
              <g id="グループ_1578" data-name="グループ 1578">
                <path id="パス_347" data-name="パス 347" d="M19.932,29.893c0,.154-.03,12.284-.03,12.135-9.329-5.383.562.323-4.6-2.649,0-.154.03-12.284.03-12.135Z" transform="translate(-15.3 -27.242)" fill="#423d9b"/>
              </g>
            </g>
            <g id="グループ_1581" data-name="グループ 1581" transform="translate(8.658 4.999)">
              <g id="グループ_1580" data-name="グループ 1580">
                <path id="パス_348" data-name="パス 348" d="M20.589,30.279,20.56,42.415l4.593,2.652.038-12.127Z" transform="translate(-20.56 -30.279)" fill="#423d9b"/>
              </g>
            </g>
          </g>
          <g id="グループ_1633" data-name="グループ 1633" transform="translate(27.18 46.194)">
            <g id="グループ_1618" data-name="グループ 1618">
              <g id="グループ_1617" data-name="グループ 1617">
                <g id="グループ_1595" data-name="グループ 1595" transform="translate(5.673 13.376)">
                  <g id="グループ_1594" data-name="グループ 1594">
                    <g id="グループ_1593" data-name="グループ 1593">
                      <path id="パス_353" data-name="パス 353" d="M33.339,43.268l-.515-.3.373-.215.515.3Z" transform="translate(-32.824 -42.753)" fill="#fff"/>
                    </g>
                  </g>
                </g>
                <g id="グループ_1598" data-name="グループ 1598" transform="translate(11.296 0.643)">
                  <g id="グループ_1597" data-name="グループ 1597">
                    <g id="グループ_1596" data-name="グループ 1596">
                      <path id="パス_354" data-name="パス 354" d="M37.166,44.134l-.515-.3-.027-9.686.515.3Z" transform="translate(-36.624 -34.149)" fill="#dedffb"/>
                    </g>
                  </g>
                </g>
                <g id="グループ_1601" data-name="グループ 1601" transform="translate(5.645 3.905)">
                  <g id="グループ_1600" data-name="グループ 1600">
                    <g id="グループ_1599" data-name="グループ 1599">
                      <path id="パス_355" data-name="パス 355" d="M33.348,46.339l-.515-.3-.027-9.686.515.3Z" transform="translate(-32.806 -36.354)" fill="#777786"/>
                    </g>
                  </g>
                </g>
                <g id="グループ_1604" data-name="グループ 1604" transform="translate(5.644 3.484)">
                  <g id="グループ_1603" data-name="グループ 1603">
                    <g id="グループ_1602" data-name="グループ 1602">
                      <path id="パス_356" data-name="パス 356" d="M33.348,46.475l-.515-.3L32.8,36.069l.515.3Z" transform="translate(-32.805 -36.069)" fill="#dedffb"/>
                    </g>
                  </g>
                </g>
                <g id="グループ_1607" data-name="グループ 1607" transform="translate(6.159 0.305)">
                  <g id="グループ_1606" data-name="グループ 1606">
                    <g id="グループ_1605" data-name="グループ 1605">
                      <path id="パス_357" data-name="パス 357" d="M39.177,33.921l.029,10.107-.373.215L38.8,34.558,33.527,37.6l.027,9.686-.373.215L33.153,37.4Z" transform="translate(-33.153 -33.921)" fill="#b0b8cf"/>
                    </g>
                  </g>
                </g>
                <g id="グループ_1610" data-name="グループ 1610" transform="translate(0.005)">
                  <g id="グループ_1609" data-name="グループ 1609">
                    <g id="グループ_1608" data-name="グループ 1608">
                      <path id="パス_358" data-name="パス 358" d="M41.173,34.026,35.15,37.5,29.5,40.759l-.5-.3,5.638-3.27,6.023-3.478Z" transform="translate(-28.994 -33.715)" fill="#fff"/>
                    </g>
                  </g>
                </g>
                <g id="グループ_1613" data-name="グループ 1613" transform="translate(0 6.742)">
                  <g id="グループ_1612" data-name="グループ 1612">
                    <g id="グループ_1611" data-name="グループ 1611">
                      <path id="パス_359" data-name="パス 359" d="M29.535,48.677l-.515-.3-.029-10.107.515.3Z" transform="translate(-28.991 -38.271)" fill="#dedffb"/>
                    </g>
                  </g>
                </g>
                <g id="グループ_1616" data-name="グループ 1616" transform="translate(0.515 3.783)">
                  <g id="グループ_1615" data-name="グループ 1615">
                    <g id="グループ_1614" data-name="グループ 1614">
                      <path id="パス_360" data-name="パス 360" d="M34.983,36.271l.029,10.107.373-.215-.373.215-.027-9.686-5.278,3.047.027,9.686-.366.212L29.339,39.53Z" transform="translate(-29.339 -36.271)" fill="#b0b8cf"/>
                    </g>
                  </g>
                </g>
              </g>
            </g>
            <g id="グループ_1620" data-name="グループ 1620" transform="translate(6.531 1.235)">
              <g id="グループ_1619" data-name="グループ 1619">
                <path id="パス_361" data-name="パス 361" d="M38.2,43.644,33.434,46.4c0-.152-.03-9.238-.03-9.086l4.765-2.753C38.17,34.709,38.2,43.8,38.2,43.644Z" transform="translate(-33.404 -34.549)" fill="#423d9b"/>
              </g>
            </g>
            <g id="グループ_1622" data-name="グループ 1622" transform="translate(0.878 4.506)">
              <g id="グループ_1621" data-name="グループ 1621">
                <path id="パス_362" data-name="パス 362" d="M34.379,45.854c-9.634,5.561,3.006-1.739-4.706,2.723l-.059.03-.03-9.086,4.765-2.752C34.35,36.919,34.379,46.006,34.379,45.854Z" transform="translate(-29.584 -36.759)" fill="#423d9b"/>
              </g>
            </g>
          </g>
        </g>
      </g>
    </g>
  </g>
</svg>
