<?xml version="1.0" encoding="utf-8"?>
<!-- Generator: Adobe Illustrator 24.0.1, SVG Export Plug-In . SVG Version: 6.00 Build 0)  -->
<svg version="1.1" id="レイヤー_1" xmlns="http://www.w3.org/2000/svg" xmlns:xlink="http://www.w3.org/1999/xlink" x="0px"
	 y="0px" viewBox="0 0 50 600" style="enable-background:new 0 0 50 600;" xml:space="preserve">
<style type="text/css">
	.st0{fill:#FFFFFF;}
</style>
<g>
	<path class="st0" d="M21.8,26.7l0.8,0.7c-0.7,0.6-1.1,1.5-1.1,2.4c0,1.2,0.6,1.8,1.4,1.8c0.9,0,1.2-0.6,1.6-1.5l0.6-1.3
		c0.3-0.8,1-1.8,2.3-1.8c1.4,0,2.3,1.2,2.3,2.8c0,1-0.4,2-1.1,2.6l-0.7-0.6c0.5-0.5,0.8-1.2,0.8-2c0-1-0.5-1.6-1.3-1.6
		c-0.9,0-1.2,0.8-1.5,1.5L25.3,31c-0.4,1-1,1.8-2.3,1.8c-1.4,0-2.5-1.2-2.5-3C20.4,28.6,20.9,27.5,21.8,26.7z"/>
	<path class="st0" d="M24.2,45.3h5.2v1.1h-5.2c-2.1,0-2.8,0.9-2.8,2c0,1.2,0.7,2.1,2.8,2.1h5.2v1.1h-5.2c-2.8,0-3.8-1.4-3.8-3.2
		C20.4,46.7,21.4,45.3,24.2,45.3z"/>
	<path class="st0" d="M29.4,64.8v2.5c0,2-0.7,3.3-2.6,3.3c-1.9,0-2.7-1.3-2.7-3.2v-1.5h-3.5v-1.1H29.4z M25,67.2
		c0,1.5,0.6,2.3,1.8,2.3c1.3,0,1.7-0.8,1.7-2.3v-1.3H25V67.2z"/>
	<path class="st0" d="M29.4,83.2v2.5c0,2-0.7,3.3-2.6,3.3c-1.9,0-2.7-1.3-2.7-3.2v-1.5h-3.5v-1.1H29.4z M25,85.6
		c0,1.5,0.6,2.3,1.8,2.3c1.3,0,1.7-0.8,1.7-2.3v-1.3H25V85.6z"/>
	<path class="st0" d="M25,101c2.8,0,4.5,1.5,4.5,3.8s-1.7,3.8-4.5,3.8s-4.6-1.5-4.6-3.8S22.2,101,25,101z M25,107.4
		c2.2,0,3.6-1,3.6-2.6c0-1.6-1.4-2.6-3.6-2.6c-2.2,0-3.6,1-3.6,2.6C21.4,106.4,22.8,107.4,25,107.4z"/>
	<path class="st0" d="M20.6,126.1l3.7-2.1v-1.6h-3.7v-1.1h8.8v2.8c0,1.8-0.6,3.1-2.5,3.1c-1.4,0-2.2-0.8-2.5-2l-3.9,2.3V126.1z
		 M25.2,122.4v1.5c0,1.4,0.6,2.1,1.7,2.1c1.2,0,1.6-0.8,1.6-2.1v-1.5H25.2z"/>
	<path class="st0" d="M28.5,141.5v-2.7h0.9v6.4h-0.9v-2.7h-7.9v-1.1H28.5z"/>
	<path class="st0" d="M24,172.6l5.4-2.6v1.2l-2.5,1.1c-0.6,0.3-1.3,0.6-1.9,0.9v0c0.7,0.3,1.3,0.6,1.9,0.9l2.5,1.1v1.2l-5.4-2.6
		h-3.4v-1.1H24z"/>
	<path class="st0" d="M25,187.8c2.8,0,4.5,1.5,4.5,3.8s-1.7,3.8-4.5,3.8s-4.6-1.5-4.6-3.8S22.2,187.8,25,187.8z M25,194.2
		c2.2,0,3.6-1,3.6-2.6c0-1.6-1.4-2.6-3.6-2.6c-2.2,0-3.6,1-3.6,2.6C21.4,193.1,22.8,194.2,25,194.2z"/>
	<path class="st0" d="M24.2,208h5.2v1.1h-5.2c-2.1,0-2.8,0.9-2.8,2c0,1.2,0.7,2.1,2.8,2.1h5.2v1.1h-5.2c-2.8,0-3.8-1.4-3.8-3.2
		C20.4,209.3,21.4,208,24.2,208z"/>
	<path class="st0" d="M20.6,232.3l3.7-2.1v-1.6h-3.7v-1.1h8.8v2.8c0,1.8-0.6,3.1-2.5,3.1c-1.4,0-2.2-0.8-2.5-2l-3.9,2.3V232.3z
		 M25.2,228.6v1.5c0,1.4,0.6,2.1,1.7,2.1c1.2,0,1.6-0.8,1.6-2.1v-1.5H25.2z"/>
	<path class="st0" d="M25,258.9c2.8,0,4.6,1.7,4.6,3.9c0,1.1-0.5,1.9-1.1,2.4l-0.7-0.6c0.5-0.5,0.8-1,0.8-1.8c0-1.7-1.4-2.8-3.6-2.8
		c-2.2,0-3.6,1.1-3.6,2.7c0,0.8,0.4,1.5,1,2l-0.7,0.6c-0.8-0.7-1.3-1.6-1.3-2.7C20.4,260.5,22.1,258.9,25,258.9z"/>
	<path class="st0" d="M23.3,281.9v-3.2l-2.7-0.9v-1.1l8.8,3v1.2l-8.8,3v-1.2L23.3,281.9z M24.2,281.6l1.3-0.4c1-0.3,2-0.6,3-0.9v0
		c-1-0.3-2-0.6-3-0.9l-1.3-0.4V281.6z"/>
	<path class="st0" d="M20.6,300.7l3.7-2.1V297h-3.7v-1.1h8.8v2.8c0,1.8-0.6,3.1-2.5,3.1c-1.4,0-2.2-0.8-2.5-2l-3.9,2.3V300.7z
		 M25.2,297v1.5c0,1.4,0.6,2.1,1.7,2.1c1.2,0,1.6-0.8,1.6-2.1V297H25.2z"/>
	<path class="st0" d="M29.4,314.3v5.1h-0.9v-4h-2.8v3.3h-0.9v-3.3h-3.2v4.1h-0.9v-5.2H29.4z"/>
	<path class="st0" d="M29.4,332.2v5.1h-0.9v-4h-2.8v3.3h-0.9v-3.3h-3.2v4.1h-0.9v-5.2H29.4z"/>
	<path class="st0" d="M20.6,354.9l3.7-2.1v-1.6h-3.7V350h8.8v2.8c0,1.8-0.6,3.1-2.5,3.1c-1.4,0-2.2-0.8-2.5-2l-3.9,2.3V354.9z
		 M25.2,351.2v1.5c0,1.4,0.6,2.1,1.7,2.1c1.2,0,1.6-0.8,1.6-2.1v-1.5H25.2z"/>
	<path class="st0" d="M29.4,382v2.2c0,2.7-1.6,4.1-4.4,4.1c-2.8,0-4.4-1.5-4.4-4.1V382H29.4z M21.5,384.1c0,2.1,1.3,3.1,3.5,3.1
		c2.2,0,3.5-1,3.5-3.1v-1h-7V384.1z"/>
	<path class="st0" d="M29.4,401v5.1h-0.9v-4h-2.8v3.3h-0.9v-3.3h-3.2v4.1h-0.9V401H29.4z"/>
	<path class="st0" d="M29.4,417.7v1.2l-4.8,1.4c-1,0.3-1.9,0.5-2.9,0.9v0c1,0.3,1.9,0.5,2.9,0.9l4.8,1.4v1.1l-8.8-2.8v-1.3
		L29.4,417.7z"/>
	<path class="st0" d="M29.4,436.6v5.1h-0.9v-4h-2.8v3.3h-0.9v-3.3h-3.2v4.1h-0.9v-5.2H29.4z"/>
	<path class="st0" d="M29.4,454.4v1.1h-7.8v3.8h-0.9v-5H29.4z"/>
	<path class="st0" d="M25,471.2c2.8,0,4.5,1.5,4.5,3.8c0,2.2-1.7,3.8-4.5,3.8s-4.6-1.5-4.6-3.8C20.4,472.8,22.2,471.2,25,471.2z
		 M25,477.6c2.2,0,3.6-1,3.6-2.6c0-1.6-1.4-2.6-3.6-2.6c-2.2,0-3.6,1-3.6,2.6C21.4,476.5,22.8,477.6,25,477.6z"/>
	<path class="st0" d="M29.4,491.4v2.5c0,2-0.7,3.3-2.6,3.3c-1.9,0-2.7-1.3-2.7-3.2v-1.5h-3.5v-1.1H29.4z M25,493.8
		c0,1.5,0.6,2.3,1.8,2.3c1.3,0,1.7-0.8,1.7-2.3v-1.3H25V493.8z"/>
	<path class="st0" d="M29.4,509.8v1.3l-4.7,1.7c-0.6,0.2-1.2,0.4-1.8,0.6v0.1c0.6,0.2,1.2,0.4,1.8,0.6l4.7,1.7v1.3h-8.8v-1h4.9
		c0.8,0,1.8,0.1,2.6,0.1v0l-2-0.7l-4.6-1.7v-0.7l4.6-1.7l2-0.7v0c-0.8,0-1.8,0.1-2.6,0.1h-4.9v-1H29.4z"/>
	<path class="st0" d="M29.4,530.3v5.1h-0.9v-4h-2.8v3.3h-0.9v-3.3h-3.2v4.1h-0.9v-5.2H29.4z"/>
	<path class="st0" d="M29.4,548.2v1.2l-5.5,3.2l-1.8,0.9v0.1c0.9-0.1,1.9-0.1,2.8-0.1h4.6v1.1h-8.8v-1.1l5.6-3.2l1.8-0.9v0
		c-0.9,0-1.8,0.1-2.7,0.1h-4.6v-1.1H29.4z"/>
	<path class="st0" d="M28.5,569.5v-2.7h0.9v6.4h-0.9v-2.7h-7.9v-1.1H28.5z"/>
</g>
</svg>
