<svg xmlns="http://www.w3.org/2000/svg" width="63" height="61.999" viewBox="0 0 63 61.999">
  <g id="g1115" transform="translate(0.158 -0.354)">
    <g id="グループ_42" data-name="グループ 42" transform="translate(0.842 1.354)">
      <g id="g1123" transform="translate(16.337 3.16)">
        <path id="path1125" d="M-144.971-529.5h-12.814a1.883,1.883,0,0,1-1.883-1.883V-581.3a1.883,1.883,0,0,1,1.883-1.883h12.814Z" transform="translate(159.668 583.183)" fill="none"/>
      </g>
      <g id="g1129" transform="translate(16.337 3.16)">
        <path id="path1131" d="M-144.971-528.5h-12.814a2.886,2.886,0,0,1-2.883-2.883V-581.3a2.886,2.886,0,0,1,2.883-2.883h12.814a1,1,0,0,1,1,1,1,1,0,0,1-1,1h-12.814a.884.884,0,0,0-.883.883v49.914a.884.884,0,0,0,.883.883h12.814a1,1,0,0,1,1,1A1,1,0,0,1-144.971-528.5Z" transform="translate(159.668 583.183)" fill="#122823"/>
      </g>
      <g id="g1133" transform="translate(30.987)">
        <path id="path1135" d="M0-18.579V37.654A1.883,1.883,0,0,0,2.243,39.5l26.247-5.12a1.883,1.883,0,0,0,1.522-1.848V-13.459a1.883,1.883,0,0,0-1.522-1.848L2.243-20.427A1.883,1.883,0,0,0,0-18.579" transform="translate(0 20.462)" fill="none"/>
      </g>
      <g id="g1137" transform="translate(0 20.109)">
        <path id="path1139" d="M-22.641-43.848h-1.338a.957.957,0,0,0-.957.957v8.977a.957.957,0,0,0,.957.957h12.136a.723.723,0,0,1,.723.723V-29.6a1.091,1.091,0,0,0,1.8.827l10.236-8.8a1.091,1.091,0,0,0,0-1.654l-10.236-8.8a1.091,1.091,0,0,0-1.8.827v2.629a.723.723,0,0,1-.723.723h-10.8Z" transform="translate(24.936 48.293)" fill="#fff"/>
      </g>
      <g id="g1145" transform="translate(0 20.109)">
        <path id="path1147" d="M-27.5-27.51a2.1,2.1,0,0,1-.878-.194A2.07,2.07,0,0,1-29.6-29.6v-2.352H-41.457a1.959,1.959,0,0,1-1.957-1.957v-8.977a1.959,1.959,0,0,1,1.957-1.957H-29.6V-47.2a2.07,2.07,0,0,1,1.219-1.9,2.069,2.069,0,0,1,2.235.315l10.236,8.8a2.089,2.089,0,0,1,.728,1.586,2.089,2.089,0,0,1-.728,1.585l-10.236,8.8A2.074,2.074,0,0,1-27.5-27.51Zm-13.914-6.447h12.094A1.725,1.725,0,0,1-27.6-32.234V-29.6a.078.078,0,0,0,.053.083.078.078,0,0,0,.1-.014l10.236-8.8a.086.086,0,0,0,.032-.069.086.086,0,0,0-.032-.069l-10.236-8.8a.078.078,0,0,0-.1-.014.078.078,0,0,0-.053.083v2.629a1.725,1.725,0,0,1-1.723,1.723H-41.415Z" transform="translate(42.415 48.293)" fill="#122823"/>
      </g>
      <g id="g1153" transform="translate(36.255 26.537)">
        <path id="path1155" d="M-23.846,7.927h-.505A2.873,2.873,0,0,1-27.264,5.1V1.826A2.873,2.873,0,0,1-24.352-1h.505a1,1,0,0,1,1,1,1,1,0,0,1-1,1h-.505a.873.873,0,0,0-.912.826V5.1a.873.873,0,0,0,.912.826h.505a1,1,0,0,1,1,1A1,1,0,0,1-23.846,7.927Z" transform="translate(26.264)" fill="#122823"/>
      </g>
      <g id="g1157" transform="translate(30.987 0)">
        <path id="path1159" d="M1.88-409.774a2.872,2.872,0,0,1-1.83-.658A2.873,2.873,0,0,1-1-412.657V-468.89a2.873,2.873,0,0,1,1.05-2.225,2.874,2.874,0,0,1,2.385-.6l26.247,5.12a2.888,2.888,0,0,1,2.331,2.83v45.993a2.888,2.888,0,0,1-2.331,2.829l-26.247,5.12A2.9,2.9,0,0,1,1.88-409.774ZM1-427.441v14.784a.871.871,0,0,0,.321.681.872.872,0,0,0,.73.185L28.3-416.91a.884.884,0,0,0,.714-.866V-463.77a.885.885,0,0,0-.714-.867l-26.247-5.12a.871.871,0,0,0-.73.185A.871.871,0,0,0,1-468.89Z" transform="translate(0 470.773)" fill="#122823"/>
      </g>
    </g>
  </g>
</svg>
