<svg xmlns="http://www.w3.org/2000/svg" xmlns:xlink="http://www.w3.org/1999/xlink" width="60" height="60" viewBox="0 0 60 60">
  <defs>
    <clipPath id="clip-path">
      <path id="path2190" d="M0-682.665H60v60H0Z" transform="translate(0 682.665)"/>
    </clipPath>
  </defs>
  <g id="g2184" transform="translate(0 682.665)">
    <g id="g2186" transform="translate(0 -682.665)">
      <g id="g2188" clip-path="url(#clip-path)">
        <g id="g2194" transform="translate(1.758 4.687)">
          <path id="path2196" d="M48.474-148.331a1,1,0,0,1-.51-.14L24.238-162.558.511-148.471a1,1,0,0,1-1.37-.349,1,1,0,0,1,.349-1.37l24.238-14.39a1,1,0,0,1,1.021,0l24.238,14.39a1,1,0,0,1,.349,1.37A1,1,0,0,1,48.474-148.331Z" transform="translate(0 163.721)" fill="#122823"/>
        </g>
      </g>
    </g>
    <g id="g2198" transform="translate(7.109 -666.766)">
      <path id="path2200" d="M24.369,28.633H0a1,1,0,0,1-1-1V0A1,1,0,0,1,0-1,1,1,0,0,1,1,0V26.633H24.369a1,1,0,0,1,0,2Z" fill="#122823"/>
    </g>
    <g id="g2202" transform="translate(44.882 -666.766)">
      <path id="path2204" d="M0-122.818a1,1,0,0,1-1-1v-11.931a1,1,0,0,1,1-1,1,1,0,0,1,1,1v11.931A1,1,0,0,1,0-122.818Z" transform="translate(0 135.749)" fill="#122823"/>
    </g>
    <g id="g2206" transform="translate(22.493 -657.856)">
      <path id="path2208" d="M7,1H0A1,1,0,0,1-1,0,1,1,0,0,1,0-1H7A1,1,0,0,1,8,0,1,1,0,0,1,7,1Z" fill="#122823"/>
    </g>
    <g id="g2210" transform="translate(20.15 -650.825)">
      <path id="path2212" d="M-133.024-6.343a1,1,0,0,1-1-1V-19.035a1,1,0,0,1,1-1h11.692a1,1,0,0,1,1,1v1.673a1,1,0,0,1-1,1,1,1,0,0,1-1-1v-.673h-9.692V-7.343A1,1,0,0,1-133.024-6.343Z" transform="translate(133.024 19.035)" fill="#122823"/>
    </g>
    <g id="g2214" transform="translate(0 -682.665)">
      <g id="g2216" clip-path="url(#clip-path)">
        <g id="g2222" transform="translate(30.499 27.448)">
          <path id="path2224" d="M-249.013-131.229a12.364,12.364,0,0,1,8.8,3.645,12.364,12.364,0,0,1,3.645,8.8,12.365,12.365,0,0,1-3.645,8.8,12.364,12.364,0,0,1-8.8,3.645,12.365,12.365,0,0,1-8.8-3.645,12.365,12.365,0,0,1-3.645-8.8,12.364,12.364,0,0,1,3.645-8.8A12.365,12.365,0,0,1-249.013-131.229Zm0,22.892a10.458,10.458,0,0,0,10.446-10.446,10.458,10.458,0,0,0-10.446-10.446,10.458,10.458,0,0,0-10.446,10.446A10.458,10.458,0,0,0-249.013-108.337Z" transform="translate(260.459 130.229)" fill="#122823"/>
        </g>
        <g id="g2226" transform="translate(50.038 46.988)">
          <path id="path2228" d="M8.225,9.225a1,1,0,0,1-.707-.293L-.707.707a1,1,0,0,1,0-1.414,1,1,0,0,1,1.414,0L8.932,7.518a1,1,0,0,1-.707,1.707Z" fill="#122823"/>
        </g>
      </g>
    </g>
  </g>
</svg>
