<svg xmlns="http://www.w3.org/2000/svg" width="62" height="62" viewBox="0 0 62 62">
  <g id="registration_2_" data-name="registration(2)" transform="translate(-10 -10)">
    <g id="グループ_38" data-name="グループ 38" transform="translate(21.301 17.987)">
      <g id="グループ_35" data-name="グループ 35" transform="translate(4.539 0)">
        <g id="グループ_33" data-name="グループ 33" transform="translate(17.164 0)">
          <path id="線_7" data-name="線 7" d="M9,1H0A1,1,0,0,1-1,0,1,1,0,0,1,0-1H9a1,1,0,0,1,1,1A1,1,0,0,1,9,1Z" fill="#122823"/>
          <path id="線_8" data-name="線 8" d="M8.57,1H0A1,1,0,0,1-1,0,1,1,0,0,1,0-1H8.57a1,1,0,0,1,1,1A1,1,0,0,1,8.57,1Z" transform="translate(0.32 6.016)" fill="#122823"/>
          <path id="線_9" data-name="線 9" d="M8.57,1H0A1,1,0,0,1-1,0,1,1,0,0,1,0-1H8.57a1,1,0,0,1,1,1A1,1,0,0,1,8.57,1Z" transform="translate(0.32 12.164)" fill="#122823"/>
        </g>
        <g id="グループ_34" data-name="グループ 34" transform="translate(0 27.548)">
          <path id="線_10" data-name="線 10" d="M21.8,1H0A1,1,0,0,1-1,0,1,1,0,0,1,0-1H21.8a1,1,0,0,1,1,1A1,1,0,0,1,21.8,1Z" fill="#122823"/>
          <path id="線_11" data-name="線 11" d="M18.262,1H0A1,1,0,0,1-1,0,1,1,0,0,1,0-1H18.262a1,1,0,0,1,1,1A1,1,0,0,1,18.262,1Z" transform="translate(0 6.121)" fill="#122823"/>
          <path id="線_12" data-name="線 12" d="M16.3,1H0A1,1,0,0,1-1,0,1,1,0,0,1,0-1H16.3a1,1,0,0,1,1,1A1,1,0,0,1,16.3,1Z" transform="translate(0 12.242)" fill="#122823"/>
          <path id="線_13" data-name="線 13" d="M16.056,1H0A1,1,0,0,1-1,0,1,1,0,0,1,0-1H16.056a1,1,0,0,1,1,1A1,1,0,0,1,16.056,1Z" transform="translate(0 18.363)" fill="#122823"/>
        </g>
      </g>
      <g id="グループ_37" data-name="グループ 37" transform="translate(0 5.38)">
        <g id="グループ_36" data-name="グループ 36">
          <path id="パス_55" data-name="パス 55" d="M96.1,170.967l-1.972-.331a7.691,7.691,0,0,1,15.167,0l-1.972.331a5.691,5.691,0,0,0-11.223,0Z" transform="translate(-95.109 -158.711)" fill="#122823"/>
          <path id="楕円形_1" data-name="楕円形 1" d="M3.257-1A4.257,4.257,0,1,1-1,3.257,4.262,4.262,0,0,1,3.257-1Zm0,6.514A2.257,2.257,0,1,0,1,3.257,2.259,2.259,0,0,0,3.257,5.514Z" transform="translate(3.341)" fill="#122823"/>
        </g>
      </g>
    </g>
    <g id="グループ_40" data-name="グループ 40" transform="translate(11 11)">
      <path id="楕円形_2" data-name="楕円形 2" d="M10-1A11,11,0,0,1,21,10,11,11,0,0,1,10,21,11,11,0,0,1-1,10,11,11,0,0,1,10-1Zm0,20a9,9,0,1,0-9-9A9.01,9.01,0,0,0,10,19Z" transform="translate(7 6.987)" fill="#122823"/>
      <g id="グループ_39" data-name="グループ 39" transform="translate(6.856 34.535)">
        <path id="線_14" data-name="線 14" d="M1.077,1H0A1,1,0,0,1-1,0,1,1,0,0,1,0-1H1.077a1,1,0,0,1,1,1A1,1,0,0,1,1.077,1Z" fill="#122823"/>
        <path id="線_15" data-name="線 15" d="M1.077,1H0A1,1,0,0,1-1,0,1,1,0,0,1,0-1H1.077a1,1,0,0,1,1,1A1,1,0,0,1,1.077,1Z" transform="translate(0 6.121)" fill="#122823"/>
        <path id="線_16" data-name="線 16" d="M1.077,1H0A1,1,0,0,1-1,0,1,1,0,0,1,0-1H1.077a1,1,0,0,1,1,1A1,1,0,0,1,1.077,1Z" transform="translate(0 12.242)" fill="#122823"/>
        <path id="線_17" data-name="線 17" d="M1.077,1H0A1,1,0,0,1-1,0,1,1,0,0,1,0-1H1.077a1,1,0,0,1,1,1A1,1,0,0,1,1.077,1Z" transform="translate(0 18.363)" fill="#122823"/>
      </g>
      <path id="パス_56" data-name="パス 56" d="M53.37,72H16.388A6.4,6.4,0,0,1,10,65.612V16.388A6.4,6.4,0,0,1,16.388,10H53.37a6.4,6.4,0,0,1,6.388,6.388V38.032h-2V16.388A4.393,4.393,0,0,0,53.37,12H16.388A4.393,4.393,0,0,0,12,16.388V65.612A4.393,4.393,0,0,0,16.388,70H53.37a4.393,4.393,0,0,0,4.388-4.388V51.746h2V65.612A6.4,6.4,0,0,1,53.37,72Z" transform="translate(-11 -11)" fill="#122823"/>
    </g>
    <g id="グループ_41" data-name="グループ 41" transform="translate(47.786 27.118)">
      <path id="パス_57" data-name="パス 57" d="M311.378,180.334a1,1,0,0,1-1-1.04l.295-7.366a1,1,0,0,1,.133-.46l16.982-29.414a1,1,0,0,1,1.366-.366l5.937,3.428a1,1,0,0,1,.366,1.366L318.476,175.9a1,1,0,0,1-.332.345l-6.232,3.938A1,1,0,0,1,311.378,180.334Zm1.284-8.079-.209,5.217,4.414-2.789,16.359-28.335-4.205-2.428Z" transform="translate(-311.378 -142.554)" fill="#122823"/>
      <path id="線_18" data-name="線 18" d="M5.936,4.428a1,1,0,0,1-.5-.134L-.5.866A1,1,0,0,1-.866-.5,1,1,0,0,1,.5-.866L6.437,2.562a1,1,0,0,1-.5,1.866Z" transform="translate(14.384 5.01)" fill="#122823"/>
      <path id="線_19" data-name="線 19" d="M5.936,4.428a1,1,0,0,1-.5-.134L-.5.866A1,1,0,0,1-.866-.5,1,1,0,0,1,.5-.866L6.437,2.562a1,1,0,0,1-.5,1.866Z" transform="translate(1.05 28.106)" fill="#122823"/>
    </g>
  </g>
</svg>
