<svg xmlns="http://www.w3.org/2000/svg" xmlns:xlink="http://www.w3.org/1999/xlink" width="60" height="60" viewBox="0 0 60 60">
  <defs>
    <clipPath id="clip-path">
      <path id="path1791" d="M0-682.665H60v60H0Z" transform="translate(0 682.665)"/>
    </clipPath>
  </defs>
  <g id="g1785" transform="translate(0 682.665)">
    <g id="g1787" transform="translate(0 -682.665)">
      <g id="g1789" clip-path="url(#clip-path)">
        <g id="g1795" transform="translate(3.855 1.172)">
          <path id="path1797" d="M-569.7-1h48.211a3.042,3.042,0,0,1,3.039,3.037V16.8a3.042,3.042,0,0,1-3.039,3.037h-8.451l-.535,3.185a1,1,0,0,1-.611.761,1,1,0,0,1-.968-.122l-5.194-3.825H-553.94l-5.194,3.825a1,1,0,0,1-.968.122,1,1,0,0,1-.611-.761l-.535-3.185H-569.7a3.042,3.042,0,0,1-3.039-3.037V2.037A3.042,3.042,0,0,1-569.7-1Zm48.211,18.834a1.039,1.039,0,0,0,1.039-1.037V2.037A1.039,1.039,0,0,0-521.488,1H-569.7a1.039,1.039,0,0,0-1.039,1.037V16.8a1.039,1.039,0,0,0,1.039,1.037h9.3a1,1,0,0,1,.986.834l.406,2.416,4.149-3.055a1,1,0,0,1,.593-.195h17.349a1,1,0,0,1,.593.195l4.149,3.055.406-2.416a1,1,0,0,1,.986-.834Z" transform="translate(571.739)" fill="#122823"/>
        </g>
        <g id="g1799" transform="translate(8.6 29.794)">
          <path id="path1801" d="M-165.751-87.469a8.619,8.619,0,0,1,8.619,8.6,8.619,8.619,0,0,1-8.619,8.6,8.619,8.619,0,0,1-8.619-8.6A8.619,8.619,0,0,1-165.751-87.469Zm0,15.2a6.617,6.617,0,0,0,6.619-6.6,6.617,6.617,0,0,0-6.619-6.6,6.617,6.617,0,0,0-6.619,6.6A6.617,6.617,0,0,0-165.751-72.269Z" transform="translate(173.37 86.469)" fill="#122823"/>
        </g>
        <g id="g1803" transform="translate(6.038 44.994)">
          <path id="path1805" d="M-211.311-142.568h-20.362a1,1,0,0,1-1-1v-9.463A5.377,5.377,0,0,1-227.3-158.4h11.62a5.377,5.377,0,0,1,5.371,5.371v9.463A1,1,0,0,1-211.311-142.568Zm-19.362-2h18.362v-8.463a3.375,3.375,0,0,0-3.371-3.371H-227.3a3.375,3.375,0,0,0-3.371,3.371Z" transform="translate(231.673 157.402)" fill="#122823"/>
        </g>
        <g id="g1807" transform="translate(36.162 29.794)">
          <path id="path1809" d="M-165.752-87.469a8.619,8.619,0,0,1,8.619,8.6,8.619,8.619,0,0,1-8.619,8.6,8.619,8.619,0,0,1-8.619-8.6A8.619,8.619,0,0,1-165.752-87.469Zm0,15.2a6.617,6.617,0,0,0,6.619-6.6,6.617,6.617,0,0,0-6.619-6.6,6.617,6.617,0,0,0-6.619,6.6A6.617,6.617,0,0,0-165.752-72.269Z" transform="translate(173.37 86.469)" fill="#122823"/>
        </g>
        <g id="g1811" transform="translate(33.6 44.994)">
          <path id="path1813" d="M-211.311-142.568h-20.362a1,1,0,0,1-1-1v-9.463A5.377,5.377,0,0,1-227.3-158.4h11.62a5.377,5.377,0,0,1,5.371,5.371v9.463A1,1,0,0,1-211.311-142.568Zm-19.362-2h18.362v-8.463a3.375,3.375,0,0,0-3.371-3.371H-227.3a3.375,3.375,0,0,0-3.371,3.371Z" transform="translate(231.673 157.402)" fill="#122823"/>
        </g>
        <g id="g1815" transform="translate(35.298 7.692)">
          <path id="path1817" d="M-122.58,1h-11.812a1,1,0,0,1-1-1,1,1,0,0,1,1-1h11.812a1,1,0,0,1,1,1A1,1,0,0,1-122.58,1Z" transform="translate(134.392 0)" fill="#122823"/>
        </g>
        <g id="g1819" transform="translate(12.891 7.692)">
          <path id="path1821" d="M-122.58,1h-11.812a1,1,0,0,1-1-1,1,1,0,0,1,1-1h11.812a1,1,0,0,1,1,1A1,1,0,0,1-122.58,1Z" transform="translate(134.392 0)" fill="#122823"/>
        </g>
        <g id="g1823" transform="translate(30.021 7.692)">
          <path id="path1825" transform="translate(0 0)" fill="#122823"/>
        </g>
        <g id="g1827" transform="translate(12.891 13.078)">
          <path id="path1829" d="M-281.965,1h-27.17a1,1,0,0,1-1-1,1,1,0,0,1,1-1h27.17a1,1,0,0,1,1,1A1,1,0,0,1-281.965,1Z" transform="translate(309.135 0)" fill="#122823"/>
        </g>
      </g>
    </g>
  </g>
</svg>
