<?xml version="1.0" encoding="utf-8"?>
<!-- Generator: Adobe Illustrator 24.0.1, SVG Export Plug-In . SVG Version: 6.00 Build 0)  -->
<svg version="1.1" id="Layer_3" xmlns="http://www.w3.org/2000/svg" xmlns:xlink="http://www.w3.org/1999/xlink" x="0px" y="0px"
	 viewBox="0 0 370 350" style="enable-background:new 0 0 370 350;" xml:space="preserve">
<style type="text/css">
	.st0{fill:#0071bc;}
</style>
<g>
	<path class="st0" d="M68,174c0,70.6,57.4,128,128,128s128-57.4,128-128S266.6,46,196,46S68,103.4,68,174z M196,62
		c61.8,0,112,50.2,112,112s-50.2,112-112,112S84,235.8,84,174S134.2,62,196,62z"/>
	<path class="st0" d="M126.3,232.3l128-128l11.3,11.3l-128,128L126.3,232.3z"/>
	<path class="st0" d="M156,166c17.6,0,32-14.4,32-32s-14.4-32-32-32s-32,14.4-32,32S138.4,166,156,166z M156,118c8.8,0,16,7.2,16,16
		s-7.2,16-16,16s-16-7.2-16-16S147.2,118,156,118z"/>
	<path class="st0" d="M236,182c-17.6,0-32,14.4-32,32s14.4,32,32,32s32-14.4,32-32S253.6,182,236,182z M236,230c-8.8,0-16-7.2-16-16
		s7.2-16,16-16s16,7.2,16,16S244.8,230,236,230z"/>
	<path class="st0" d="M65.7,192.3l-24-24c-3.1-3.1-8.2-3.1-11.3,0l-24,24l11.3,11.3L29,192.3C38.2,276.3,109.5,342,196,342
		c92.6,0,168-75.4,168-168S288.6,6,196,6v16c83.8,0,152,68.2,152,152s-68.2,152-152,152c-76.7,0-140.1-57.2-150.4-131.1l8.7,8.7
		L65.7,192.3z"/>
</g>
</svg>
