<?xml version="1.0" encoding="utf-8"?>
<!-- Generator: Adobe Illustrator 24.0.3, SVG Export Plug-In . SVG Version: 6.00 Build 0)  -->
<svg version="1.1" id="レイヤー_1" xmlns="http://www.w3.org/2000/svg" xmlns:xlink="http://www.w3.org/1999/xlink" x="0px"
	 y="0px" viewBox="0 0 336 256" style="enable-background:new 0 0 336 256;" xml:space="preserve">
<style type="text/css">
	.st0{fill:#FFFFFF;}
</style>
<path class="st0" d="M296,0H40C17.9,0,0,17.9,0,40v128c0,22.1,17.9,40,40,40h91.7l29.6,44.4c1.5,2.2,4,3.6,6.7,3.6s5.2-1.3,6.7-3.6
	l29.6-44.4H296c22.1,0,40-17.9,40-40V40C336,17.9,318.1,0,296,0z M320,168c0,13.2-10.8,24-24,24h-96c-2.7,0-5.2,1.3-6.7,3.6
	l-25.3,38l-25.3-38c-1.5-2.2-4-3.6-6.7-3.6H40c-13.2,0-24-10.8-24-24V40c0-13.2,10.8-24,24-24h256c13.2,0,24,10.8,24,24V168z"/>
<path class="st0" d="M104,80c-13.2,0-24,10.8-24,24s10.8,24,24,24s24-10.8,24-24S117.2,80,104,80z M104,112c-4.4,0-8-3.6-8-8
	s3.6-8,8-8s8,3.6,8,8S108.4,112,104,112z"/>
<path class="st0" d="M168,80c-13.2,0-24,10.8-24,24s10.8,24,24,24s24-10.8,24-24S181.2,80,168,80z M168,112c-4.4,0-8-3.6-8-8
	s3.6-8,8-8s8,3.6,8,8S172.4,112,168,112z"/>
<path class="st0" d="M232,80c-13.2,0-24,10.8-24,24s10.8,24,24,24s24-10.8,24-24S245.2,80,232,80z M232,112c-4.4,0-8-3.6-8-8
	s3.6-8,8-8s8,3.6,8,8S236.4,112,232,112z"/>
</svg>
