<?xml version="1.0" encoding="utf-8"?>
<!-- Generator: Adobe Illustrator 24.0.1, SVG Export Plug-In . SVG Version: 6.00 Build 0)  -->
<svg version="1.1" id="Capa_1" xmlns="http://www.w3.org/2000/svg" xmlns:xlink="http://www.w3.org/1999/xlink" x="0px" y="0px"
	 viewBox="0 0 50 50" style="enable-background:new 0 0 50 50;" xml:space="preserve">
<style type="text/css">
	.st0{fill:#FFFFFF;}
</style>
<g>
	<g>
		<g>
			<path class="st0" d="M49.4,28.9c0-1.8-1.5-3.3-3.3-3.3c1.8,0,3.3-1.5,3.3-3.3S47.9,19,46.1,19H32.8c2-6,2-7.9,2-11.5
				c0-2.7-2.2-4.9-4.9-4.9h-1c-0.6,0-1.4,0.5-1.6,1.2c-1.6,6.3-4.1,13.5-10.5,14.9v23.6l5.6,1.9c1.7,0.6,3.4,0.8,5.1,0.8h15.3
				c1.8,0,3.3-1.5,3.3-3.3s-1.5-3.3-3.3-3.3h3.3c1.8,0,3.3-1.5,3.3-3.3s-1.5-3.3-3.3-3.3C48,32.2,49.4,30.7,49.4,28.9z"/>
		</g>
	</g>
	<g>
		<g>
			<path class="st0" d="M8.7,14.7H2.2c-0.9,0-1.6,0.7-1.6,1.6v29.3c0,0.9,0.7,1.6,1.6,1.6h6.5c2.7,0,4.9-2.2,4.9-4.9V19.6
				C13.6,16.9,11.4,14.7,8.7,14.7z M8.7,40.7c-0.9,0-1.6-0.7-1.6-1.6c0-0.9,0.7-1.6,1.6-1.6s1.6,0.7,1.6,1.6S9.6,40.7,8.7,40.7z"/>
		</g>
	</g>
</g>
</svg>
