<svg id="enter_1_" data-name="enter(1)" xmlns="http://www.w3.org/2000/svg" width="20" height="20" viewBox="0 0 20 20">
  <path id="パス_50" data-name="パス 50" d="M8.548,209.251H.625a.625.625,0,1,1,0-1.251H8.548a.625.625,0,1,1,0,1.251Zm0,0" transform="translate(0 -199.875)" fill="#122823"/>
  <path id="パス_51" data-name="パス 51" d="M123.3,135.49a.626.626,0,0,1-.442-1.068l2.685-2.685-2.685-2.684a.626.626,0,0,1,.885-.885l3.127,3.127a.626.626,0,0,1,0,.885l-3.127,3.127A.624.624,0,0,1,123.3,135.49Zm0,0" transform="translate(-117.881 -122.987)" fill="#122823"/>
  <path id="パス_52" data-name="パス 52" d="M300.336,20.08a1.669,1.669,0,0,1-1.668-1.667v-15A1.677,1.677,0,0,1,299.8,1.83l5.01-1.669a1.685,1.685,0,0,1,2.2,1.585v15a1.678,1.678,0,0,1-1.128,1.582L300.867,20A1.746,1.746,0,0,1,300.336,20.08Zm5-18.75a.491.491,0,0,0-.149.022L300.2,3.014a.43.43,0,0,0-.282.4v15a.439.439,0,0,0,.566.4l4.989-1.662a.431.431,0,0,0,.282-.4v-15A.417.417,0,0,0,305.339,1.33Zm0,0" transform="translate(-287.007 -0.08)" fill="#122823"/>
  <path id="パス_53" data-name="パス 53" d="M171.293,4.17a.626.626,0,0,1-.625-.625V2.293A2.3,2.3,0,0,1,172.961,0h9.382a.625.625,0,1,1,0,1.251h-9.382a1.044,1.044,0,0,0-1.042,1.042V3.544A.626.626,0,0,1,171.293,4.17Zm0,0" transform="translate(-164.011)" fill="#122823"/>
  <path id="パス_54" data-name="パス 54" d="M176.3,345.5h-3.336a2.3,2.3,0,0,1-2.293-2.293v-1.251a.625.625,0,1,1,1.251,0v1.251a1.044,1.044,0,0,0,1.042,1.042H176.3a.625.625,0,1,1,0,1.251Zm0,0" transform="translate(-164.003 -328.003)" fill="#122823"/>
</svg>
