<svg xmlns="http://www.w3.org/2000/svg" width="18" height="20" viewBox="0 0 18 20">
  <g id="add-user_1_" data-name="add-user(1)" transform="translate(-3 -0.949)">
    <path id="パス_48" data-name="パス 48" d="M24.655,20.995H22.326V18.666a.666.666,0,1,0-1.331,0v2.329H18.666a.666.666,0,1,0,0,1.331h2.329v2.329a.666.666,0,1,0,1.331,0V22.326h2.329a.666.666,0,1,0,0-1.331Z" transform="translate(-4.321 -5.703)" fill="#122823"/>
    <path id="パス_49" data-name="パス 49" d="M12.082,19.618H5.1a.683.683,0,0,1-.7-.666,7.518,7.518,0,0,1,7.685-7.321,5.528,5.528,0,0,0,5.565-4.573,5.341,5.341,0,0,0-3.97-5.892A5.7,5.7,0,0,0,6.995,4.081a5.2,5.2,0,0,0,2.091,6.713A8.7,8.7,0,0,0,3,18.952a2.048,2.048,0,0,0,2.1,2h6.986a.666.666,0,1,0,0-1.331ZM7.89,6.307a4.1,4.1,0,0,1,4.192-3.993,4.1,4.1,0,0,1,4.192,3.993A4.1,4.1,0,0,1,12.082,10.3,4.1,4.1,0,0,1,7.89,6.307Z" transform="translate(0 0)" fill="#122823"/>
  </g>
</svg>
