<?xml version="1.0" encoding="utf-8"?>
<!-- Generator: Adobe Illustrator 24.0.2, SVG Export Plug-In . SVG Version: 6.00 Build 0)  -->
<svg version="1.1" id="Capa_1" xmlns="http://www.w3.org/2000/svg" xmlns:xlink="http://www.w3.org/1999/xlink" x="0px" y="0px"
	 viewBox="0 0 50 50" style="enable-background:new 0 0 50 50;" xml:space="preserve">
<style type="text/css">
	.st0{fill:#888888;}
</style>
<g>
	<g>
		<g>
			<path class="st0" d="M3.9,31.8c-1.8,0-3.3,1.5-3.3,3.3s1.5,3.3,3.3,3.3h3.3c-1.8,0-3.3,1.5-3.3,3.3S5.4,45,7.2,45h15.3
				c1.7,0,3.4-0.2,5.1-0.8l5.6-1.9V18.7c-6.4-1.4-8.9-8.6-10.5-14.9c-0.2-0.7-1-1.2-1.6-1.2h-1c-2.7,0-4.9,2.2-4.9,4.9
				c0,3.6,0,5.5,2,11.5H3.9c-1.8,0-3.3,1.5-3.3,3.3s1.5,3.3,3.3,3.3c-1.8,0-3.3,1.5-3.3,3.3C0.6,30.7,2,32.2,3.9,31.8z"/>
		</g>
	</g>
	<g>
		<g>
			<path class="st0" d="M36.4,19.6v22.7c0,2.7,2.2,4.9,4.9,4.9h6.5c0.9,0,1.6-0.7,1.6-1.6V16.3c0-0.9-0.7-1.6-1.6-1.6h-6.5
				C38.6,14.7,36.4,16.9,36.4,19.6z M39.7,39.1c0-0.9,0.7-1.6,1.6-1.6c0.9,0,1.6,0.7,1.6,1.6c0,0.9-0.7,1.6-1.6,1.6
				C40.4,40.7,39.7,40,39.7,39.1z"/>
		</g>
	</g>
</g>
</svg>
