<?xml version="1.0" encoding="utf-8"?>
<!-- Generator: Adobe Illustrator 24.0.1, SVG Export Plug-In . SVG Version: 6.00 Build 0)  -->
<svg version="1.1" id="レイヤー_1" xmlns="http://www.w3.org/2000/svg" xmlns:xlink="http://www.w3.org/1999/xlink" x="0px"
	 y="0px" viewBox="0 0 200 200" style="enable-background:new 0 0 200 200;" xml:space="preserve">
<style type="text/css">
	.st0{fill:#FFFFFF;}
	.st1{fill:#AAC6CE;}
	.st2{fill:#85B0BA;}
	.st3{fill:none;stroke:#3E8CCC;stroke-width:0.8845;stroke-miterlimit:10;}
	.st4{fill:#62BDF4;}
	.st5{fill:#67B8EF;}
	.st6{opacity:0.25;fill:#34648C;enable-background:new    ;}
	.st7{fill:#CEE5ED;}
	.st8{fill:#FFCAA6;}
	.st9{fill:#1E394C;}
	.st10{fill:#0F2A3F;}
	.st11{fill:#80A9B2;}
	.st12{opacity:0.67;fill:#EA9249;enable-background:new    ;}
	.st13{fill:#3E8CCC;}
	.st14{fill:#2173AA;}
	.st15{fill:#34648C;}
	.st16{fill:#1A3651;}
</style>
<circle class="st0" cx="100" cy="100" r="100"/>
<g>
	<g>
		<g>
			<g>
				<rect x="79.7" y="117.2" class="st1" width="3.6" height="34.3"/>
				<rect x="79.7" y="117.2" class="st2" width="3.6" height="4.8"/>
				<path class="st1" d="M97.1,151.4H67c-1.1,0-2,1-2,2v1.1h34.2v-1.1C99.2,152.4,98.3,151.4,97.1,151.4z"/>
				<path class="st1" d="M73.1,117.2H98c-9-3.3-5.6-33.8-3.9-45.4c0.4-2.3-1.5-4.4-3.8-4.4H73.7c-3.4,0-6.3,2.5-6.7,5.8
					c-1.4,10.5-3.7,32.4,0.8,40.9C68.7,116,70.8,117.2,73.1,117.2z"/>
			</g>
			<g>
				<path class="st3" d="M59.3,21.8"/>
			</g>
			<g>
				<path class="st4" d="M158.4,48.2h-29.7c-1.5,0-2.7,1.2-2.7,2.7v13.4c0,1.5,1.2,2.7,2.7,2.7h2v3.3c0,0.4,0.5,0.7,0.9,0.4l4-3.6
					h22.7c1.5,0,2.7-1.2,2.7-2.7V51C161.2,49.4,159.9,48.2,158.4,48.2z"/>
			</g>
			<g>
				<g>
					<path class="st5" d="M61.1,84.2c0-3.3-2.3-6.5-5.1-6.5s-5.1,3.3-5.1,6.5c0,3.3,2.3,5.9,5.1,5.9S61.1,87.5,61.1,84.2z"/>
					<path class="st6" d="M56,77.7c-0.4,0-0.9,0.1-1.3,0.3c2.2,0.8,3.8,3.5,3.8,6.3c0,2.7-1.6,5-3.8,5.7c0.4,0.1,0.9,0.2,1.3,0.2
						c2.8,0,5.1-2.7,5.1-5.9C61.1,80.9,58.8,77.7,56,77.7z"/>
				</g>
				<g>
					<path class="st7" d="M50.1,88.1l0.9,8.4c0.1,1.1,1,1.9,2,1.9h5.3c1.1,0,1.9-0.8,2-1.9l0.9-8.4c0.1-0.4-0.3-0.9-0.8-0.9h-9.6
						C50.3,87.2,50,87.6,50.1,88.1z"/>
					<path class="st1" d="M50.9,88.4h9.8c0.3,0,0.5,0.2,0.7,0.4l0.1-0.8c0.1-0.4-0.3-0.9-0.8-0.9h-9.8c-0.4,0-0.8,0.4-0.8,0.9
						l0.1,0.8C50.2,88.6,50.5,88.4,50.9,88.4z"/>
					<path class="st1" d="M60.6,87.2h-3.4c0.4,0,0.8,0.4,0.8,0.9l-0.9,8.4c-0.1,1.1-1,1.9-2,1.9h3.4c1.1,0,1.9-0.8,2-1.9l0.9-8.4
						C61.4,87.6,61,87.2,60.6,87.2z"/>
				</g>
			</g>
			<g>
				<g>
					<g>
						<polygon class="st8" points="103.4,146.4 103,148.8 104.9,151.2 109.6,148.9 110.1,146.6 104.3,145.8 						"/>
						<path class="st9" d="M107.2,154.2l0.4-0.6c0.1-0.1,0.3-0.1,0.4,0l0.4,0.5c0.2,0.3,0.4,0.4,0.8,0.4l10.9-0.2
							c0.2-0.2,0.3-0.6,0-0.8c-1.6-1.6-10.2-4.4-10.6-4.6c-0.4-0.3-3,1.8-6.5-0.1c0,0-0.5,2.7-0.6,4.5c0,0.7,0.5,1.3,1.2,1.3
							l2.7-0.1C106.8,154.5,107,154.4,107.2,154.2z"/>
						<path class="st9" d="M83.5,105.4c0,0-4.5,5,3.7,10.4c5.8,3.8,10.3,2.7,14,5c0.9,0.5,1.5,1.3,1.6,2.4l0.2,23.4l0.4,0.2
							c2.2,1.1,4.8,1.1,7,0.1l0,0l3.3-26.6c0.1-1.9-0.9-3.4-2-4.9c-6.3-8-17.5-10.8-20.3-11.2C87.7,103.5,83.5,105.4,83.5,105.4z"/>
					</g>
					<g>
						<polygon class="st8" points="85.4,146.4 85.1,148.8 86.9,151.2 91.6,148.9 92.2,146.7 86.3,145.8 						"/>
						<path class="st9" d="M89.2,154.3l0.5-0.6c0.1-0.1,0.3-0.1,0.4,0l0.4,0.6c0.2,0.3,0.4,0.4,0.8,0.4h10.9c0.2-0.2,0.3-0.5,0-0.8
							c-1.6-1.6-10.1-4.5-10.5-4.8s-3.1,1.8-6.5-0.2c0,0-0.6,2.7-0.7,4.5c0,0.7,0.5,1.3,1.2,1.3h2.7C88.6,154.6,89,154.4,89.2,154.3
							z"/>
						<path class="st9" d="M69.8,101.1c0,0-5.5,6.1,2.5,13c5.6,4.9,10.5,2.7,14,5.7c0.8,0.7,1.4,1.6,1.3,2.7l-2.5,23.7l0.2,0.1
							c2.2,1.4,5,1.6,7.3,0.5l0,0l6.2-25c0.4-1.9-0.4-3.7-1.4-5.4c-5.5-9.4-14.1-14.9-17-15.8C76.5,99.4,69.8,101.1,69.8,101.1z"/>
					</g>
					<path class="st10" d="M100,120.1c-0.4-0.2-0.8-0.4-1.2-0.4c-0.3-1.1-0.8-2.2-1.4-3.3c-2.7-4.6-6.2-8.3-9.4-11
						c1.9-0.4,3-0.8,3.5-1.3c1.1,0.2,3.3,0.7,5.9,1.6C100,110.2,100,117.5,100,120.1z"/>
				</g>
				<path class="st7" d="M84.5,68.8c0,0-7.9-1.1-11.1,5.1c-3.3,6.1-8.1,30.3-3.9,31c1.9,0.4,7,1.6,12.6,1.1c7.7-0.5,9.4-1.2,9.9-2.7
					l4.9-22.5c0.1-3.1-1.2-6-3.7-8C89.2,70,84.5,68.8,84.5,68.8z"/>
				<path class="st1" d="M96.8,78.9c0,0,0.1,13.5,4.3,14.3c4.2,0.8,15.6,0.5,15.6,0.5V98H92.4L96.8,78.9z"/>
				<path class="st8" d="M90.9,72.8l1-4.8l-6.2-4.7L84.6,69C84.5,68.9,86.4,77.5,90.9,72.8z"/>
				<path class="st9" d="M98.8,58.9c0,0-3.3,1.6-8-1.3c0,0-1.1,1.9-4.2,3.7c0,0-1.7-2.7-2.6-0.7c-0.3,0.6-0.4,1.2-0.4,1.7
					c-3-3.9-0.9-8.9,1.9-11.7c2.7-2.6,8.3-1.6,11.9-0.1c3.8,1.5,4.5-1.1,4.5-1.1C106.6,56.2,98.8,58.9,98.8,58.9z"/>
				<path class="st8" d="M86.5,61.3c0,0-1.7-2.7-2.6-0.7c-1.1,2.6,0.2,4.1,1.7,4.1c0,0,1.2,6.5,7.3,6.1c6-0.4,6.9-10.2,5.9-11.9
					c0,0-3.3,1.6-8-1.3C90.8,57.6,89.7,59.5,86.5,61.3z"/>
				<g>
					<path class="st7" d="M138.8,76.7h-25.1c-1.2,0-2.3,0.9-2.6,2.1l-3.4,16.5h30.5l3.1-15.4C141.7,78.2,140.5,76.7,138.8,76.7z"/>
					<path class="st11" d="M138.1,95.2H96.5c-0.7,0-1.2,0.5-1.2,1.2v0.4c0,0.7,0.5,1.2,1.2,1.2h41.6c0.7,0,1.2-0.5,1.2-1.2v-0.4
						C139.3,95.7,138.8,95.2,138.1,95.2z"/>
					<path class="st1" d="M138.1,95.2h-30.7c0.7,0,1.2,0.5,1.2,1.2v0.4c0,0.7-0.5,1.2-1.2,1.2h30.7c0.7,0,1.2-0.5,1.2-1.2v-0.4
						C139.3,95.7,138.8,95.2,138.1,95.2z"/>
				</g>
				<path class="st7" d="M97.8,94.3c-4.9-0.5-18.7-1.9-21-2.2c-3-0.3,3.4-12.3,4.2-16.4c0.7-4.1-2.4-4.2-2.4-4.2
					c-1.8-0.2-3.7,0-5.3,2.5c-3.4,5-7.1,19.9-5.1,23.6c0.3,0.4,0.7,0.7,1.1,0.7h28.5C97.8,98.3,97.8,94.3,97.8,94.3z"/>
				<path class="st1" d="M97.8,94.3c0,0-17.7-1.2-21.5-1.8c-2.9-0.4,3.2-12.6,3.9-16.8c0.7-4.1-2.5-3.9-2.5-3.9
					c-0.8-0.1-1.9,0-2.7,0.3c1.1-0.8,2.4-0.8,3.6-0.7c0,0,3.1,0.2,2.4,4.2c-0.7,4.1-6.3,15.8-4.3,16.3C79,92.5,93,93.7,97.8,94.3z"
					/>
				<path class="st8" d="M97.8,98.3h6.6c0.5,0,0.8-0.5,0.5-1c-0.6-1-1.6-2.3-2.3-2.5c-0.4-0.2-3.6,0-4.8,0.1L97.8,98.3L97.8,98.3z"
					/>
				<path class="st12" d="M98.8,58.9c0,0-0.5,0.3-1.5,0.4c-0.1,0.4-0.3,1.3-0.3,2.1c-0.1,1.1,0.4,4.8,0.1,4.8s-1.1,0-1.1,0
					s-0.6,5.1-5.7,4.3c-0.1,0-0.1,0-0.2,0c0.8,0.3,1.7,0.4,2.7,0.4C99,70.3,99.8,60.7,98.8,58.9z"/>
			</g>
			<g>
				<g>
					<path class="st13" d="M156.1,98.2H47.7c-1.2,0-2.2,1-2.2,2.2v0.7c0,1.2,1,2.2,2.2,2.2h108.4c1.2,0,2.2-1,2.2-2.2v-0.7
						C158.3,99.2,157.4,98.2,156.1,98.2z"/>
					<path class="st14" d="M156.1,98.2H47.7c-1.2,0-2.2,1-2.2,2.2v0.7c0,0.3,0.1,0.4,0.1,0.7c0.3-0.9,1.1-1.5,2.1-1.5h108.4
						c1,0,1.8,0.6,2.1,1.5c0.1-0.2,0.1-0.4,0.1-0.7v-0.7C158.3,99.2,157.4,98.2,156.1,98.2z"/>
				</g>
				<g>
					<g>
						<g>
							<polygon class="st15" points="82,154.4 78.4,154.4 53.2,103.4 56.8,103.4 							"/>
						</g>
					</g>
					<g>
						<g>
							<polygon class="st15" points="42.1,154.4 45.7,154.4 70.9,103.4 67.3,103.4 							"/>
						</g>
					</g>
					<g>
						<g>
							<polygon class="st15" points="160,154.4 156.4,154.4 131.2,103.4 134.8,103.4 							"/>
						</g>
					</g>
					<g>
						<g>
							<polygon class="st15" points="120.1,154.4 123.7,154.4 149,103.4 145.3,103.4 							"/>
						</g>
					</g>
					<g>
						<g>
							<polygon class="st16" points="57.8,105.3 56.8,103.4 53.2,103.4 54.1,105.3 							"/>
						</g>
					</g>
					<g>
						<g>
							<polygon class="st16" points="69.9,105.3 70.9,103.4 67.3,103.4 66.3,105.3 							"/>
						</g>
					</g>
					<g>
						<g>
							<polygon class="st16" points="135.8,105.3 134.8,103.4 131.2,103.4 132.1,105.3 							"/>
						</g>
					</g>
					<g>
						<g>
							<polygon class="st16" points="148,105.3 149,103.4 145.3,103.4 144.4,105.3 							"/>
						</g>
					</g>
				</g>
			</g>
		</g>
	</g>
</g>
</svg>
