<?xml version="1.0" encoding="utf-8"?>
<!-- Generator: Adobe Illustrator 24.0.1, SVG Export Plug-In . SVG Version: 6.00 Build 0)  -->
<svg version="1.1" id="レイヤー_1" xmlns="http://www.w3.org/2000/svg" xmlns:xlink="http://www.w3.org/1999/xlink" x="0px"
	 y="0px" viewBox="0 0 200 200" style="enable-background:new 0 0 200 200;" xml:space="preserve">
<style type="text/css">
	.st0{fill:#F8FAFB;}
	.st1{fill:#FFCAA6;}
	.st2{fill:#2CAAA2;}
	.st3{fill:#EFEFEF;}
	.st4{fill:url(#SVGID_1_);}
	.st5{fill:#232323;}
	.st6{fill:#D88344;}
	.st7{fill:url(#SVGID_2_);}
	.st8{fill:#4D8DFF;}
	.st9{fill:#FFFFFF;}
	.st10{fill:#FF4E4A;}
	.st11{fill:#FFC84D;}
</style>
<circle class="st0" cx="100" cy="100" r="100"/>
<g>
	<g>
		<path class="st1" d="M110.3,97.1l-8.6-5.6c0,0-8.5,15.7-12.8,24.9c-6.4-4.4-17.7-12.6-21-16.3c0,0,0,0,0,0
			c0.1-1.4-0.1-3.6-0.5-4.9c0,0,0-0.1,0-0.1c0-0.1,0-0.1-0.1-0.2c0-0.1,0-0.2-0.1-0.2c-0.1-0.2-0.1-0.3-0.2-0.4
			c-0.9-1.9-2.3-2.7-3.1-5.3c-0.6-1.8-2.2-0.3-2.1,1c0,0,0.2,0.8,0.5,1.7c-1.1-0.5-2-0.8-2.7-0.6c-0.8,0.3-1.6,4.2-1.3,5.6
			c0.4,1.4,4.2,5.8,5.6,6.6c0.1,0.1,0.2,0.1,0.3,0.1c2.3,3.2,17.4,21.2,23.5,24.3c3.8,1.9,6.6,0.3,7.5-2.2
			C98.3,120.8,107,105.6,110.3,97.1z"/>
		<path class="st2" d="M111.5,87.4c1.3,6.6-3.9,25.2-3.9,25.2l-16-7.9C91.5,104.8,108,70.1,111.5,87.4z"/>
		<path class="st3" d="M144.6,173.6c0,0.2,0,0.4,0,0.6c-3,0.7-6.2,1.1-9.6,1.3c-12.3,0.8-26.5-1.6-40.1-6.2c0.5-7,1.2-14.4,2.3-19.3
			l37.7,0.8l3,0.1l5.6,0.1l0.3,0C144.1,153.9,144.5,166.1,144.6,173.6z"/>
		<linearGradient id="SVGID_1_" gradientUnits="userSpaceOnUse" x1="96.1462" y1="116.0246" x2="144.3145" y2="116.0246">
			<stop  offset="0" style="stop-color:#51B9B1"/>
			<stop  offset="1" style="stop-color:#66C0BB"/>
		</linearGradient>
		<path class="st4" d="M123.1,79.6c10.4,0.3,13.9,3.8,15.6,9.9c2,6.9,5.6,48.3,5.6,62.2c0,0-31,2.2-48.2-0.6
			c5.4-18.2,6-50.9,6.1-60.6C102.3,83.1,109.9,79.2,123.1,79.6z"/>
		<path class="st5" d="M113.9,62.6c-1-0.8-6.3-0.1-4.8-10.9c0.6-4,4.3-1.3,6.9-0.8c2.6,0.5,1,11.9,1,11.9L113.9,62.6z"/>
		<path class="st1" d="M127.2,60c-0.4,2.9-1.3,18.4-1,22c0.4,3.6-17.1,4.6-14.8,0.7c2.3-4,0.7-17.2,0.7-17.2L127.2,60z"/>
		<path class="st6" d="M126,60.5l-13.9,5.1c0,0,0.9,7.7,0.4,13.1c10.6-0.8,13.3-14.2,13.5-16.8C126,61.4,126,60.9,126,60.5z"/>
		<path class="st1" d="M107.6,59.6c-1.3,8.9-3.5,17.7,7.3,16.3c10.8-1.5,12.4-15.2,12.4-17.8C127.2,44.1,110.2,42.1,107.6,59.6z"/>
		<path class="st5" d="M128.5,48.5C128.5,48.5,128.5,48.4,128.5,48.5c0.4-1.2-0.2-2.4-0.3-2.4l-0.6,0.3c0,0,0.5,1,0.3,1.8
			c-2.4-2.6-16.6-1.5-19.1,1.4c-3.2,3.7,6.7,2.1,12.2,1.1c0.8,3.3,4.3,8.7,5.3,9.4l3,0.2C129.4,60.4,131.1,49.1,128.5,48.5z"/>
		<path class="st1" d="M152.2,156.1c0.7-3.8,2.9-27.1,1.1-33.7c0,0,0,0,0,0c-1.3-4.1-7.6-22-12.2-30.5l-9.8,2.9
			c0,0,8.2,21.5,12.2,29.1c0,0.2,0,0.4,0.1,0.6c0.6,3.1,3.9,23.1,3.8,30.4c-0.7,0.2-1.5,0.6-2.1,1.3c-0.7,0.9-2.1,3.3-2,4.4
			c0.3,3.1,2,6.8,3.2,7.4c0.7,0.4,4.1-1.7,4.9-3c0.7-1.2,1.3-7,0.9-8.6C152.3,156.3,152.3,156.2,152.2,156.1z"/>
		<linearGradient id="SVGID_2_" gradientUnits="userSpaceOnUse" x1="128.2314" y1="95.6853" x2="150.3027" y2="95.6853">
			<stop  offset="0" style="stop-color:#51B9B1"/>
			<stop  offset="1" style="stop-color:#66C0BB"/>
		</linearGradient>
		<path class="st7" d="M135.3,83.3c5.6,3.7,15,20.6,15,20.6l-16.9,5.8C133.4,109.7,120.6,73.5,135.3,83.3z"/>
		
			<rect x="61.9" y="81.5" transform="matrix(0.9134 -0.4071 0.4071 0.9134 -31.6379 33.2893)" class="st5" width="0.9" height="19"/>
		<path class="st1" d="M124.6,61.2c-1,2.2-2.2,4.3,0.9,4.7c3.1,0.4,4.5-3,4.6-3.7C131,58.6,126.5,56.9,124.6,61.2z"/>
	</g>
	<g>
		<path class="st8" d="M79,24.4h-31c-1.1,0-2,0.9-2,2v11.1c0,1.1,0.9,2,2,2h1.9l2.1,2.8c0.5,0.6,1.5,0.4,1.7-0.3l0.7-2.5H79
			c1.1,0,2-0.9,2-2V26.4C80.9,25.3,80,24.4,79,24.4z"/>
		<g>
			<rect x="49" y="27.3" class="st9" width="27.4" height="0.7"/>
			<rect x="49" y="30.4" class="st9" width="18.1" height="0.7"/>
			<rect x="49" y="33.5" class="st9" width="22.6" height="0.7"/>
		</g>
	</g>
	<g>
		<path class="st10" d="M71.7,61.4H47.9c-1.1,0-2,0.9-2,2v11.1c0,1.1,0.9,2,2,2h1.9l2.1,2.8c0.5,0.6,1.5,0.4,1.7-0.3l0.7-2.5h17.3
			c1.1,0,2-0.9,2-2V63.3C73.6,62.2,72.7,61.4,71.7,61.4z"/>
		<g>
			<rect x="49" y="64.3" class="st9" width="12.6" height="0.7"/>
			<rect x="64.3" y="64.3" class="st9" width="4.4" height="0.7"/>
			<rect x="49" y="67.4" class="st9" width="9" height="0.7"/>
			<rect x="49" y="70.5" class="st9" width="17.3" height="0.7"/>
		</g>
	</g>
	<g>
		<path class="st11" d="M63.7,42.9h28.9c1.1,0,2,0.9,2,2v11.1c0,1.1-0.9,2-2,2h-1.9l-2.1,2.8c-0.5,0.6-1.5,0.4-1.7-0.3l-0.7-2.5
			H63.7c-1.1,0-2-0.9-2-2V44.8C61.8,43.7,62.6,42.9,63.7,42.9z"/>
		<g>
			<rect x="79.9" y="45.8" class="st9" width="11.6" height="0.7"/>
			<rect x="66.4" y="48.9" class="st9" width="25.2" height="0.7"/>
			<rect x="79.2" y="52" class="st9" width="12.4" height="0.7"/>
			<rect x="71.4" y="52" class="st9" width="5.7" height="0.7"/>
		</g>
	</g>
</g>
</svg>
