<?xml version="1.0" encoding="utf-8"?>
<!-- Generator: Adobe Illustrator 24.0.1, SVG Export Plug-In . SVG Version: 6.00 Build 0)  -->
<svg version="1.1" id="レイヤー_1" xmlns="http://www.w3.org/2000/svg" xmlns:xlink="http://www.w3.org/1999/xlink" x="0px"
	 y="0px" viewBox="0 0 200 200" style="enable-background:new 0 0 200 200;" xml:space="preserve">
<style type="text/css">
	.st0{fill:#FFFFFF;}
	.st1{fill:#FFCAA6;}
	.st2{fill:#1E394C;}
	.st3{fill:#CEE5ED;}
	.st4{fill:#F6BA8E;}
	.st5{fill:#B4CCD3;}
	.st6{fill:#EA9249;}
</style>
<g id="レイヤー_2_1_">
	<circle class="st0" cx="100" cy="100" r="100"/>
</g>
<g id="レイヤー_1_1_">
	<g>
		<g>
			<g>
				<g>
					<g>
						<g>
							<polygon class="st1" points="117.3,158.3 117.8,161.1 115.7,163.8 110.4,161.3 109.7,158.7 116.3,157.7 							"/>
							<path class="st2" d="M113.2,167.2l-0.6-0.7c-0.1-0.1-0.3-0.1-0.4,0l-0.5,0.6c-0.2,0.3-0.5,0.4-0.9,0.4H98.5
								c-0.2-0.2-0.3-0.6,0-0.9c1.8-1.9,11.5-5.1,11.9-5.4c0.5-0.3,3.5,2,7.4-0.2c0,0,0.7,3.1,0.8,5.1c0,0.8-0.6,1.5-1.4,1.5h-3.1
								C113.7,167.6,113.4,167.5,113.2,167.2z"/>
						</g>
						<g>
							<polygon class="st1" points="137.1,158.4 137.5,161.2 135.5,163.9 130.1,161.4 129.5,158.9 136.1,157.8 							"/>
							<path class="st2" d="M132.9,167.4l-0.6-0.7c-0.1-0.1-0.3-0.1-0.4,0l-0.5,0.6c-0.2,0.3-0.5,0.4-0.9,0.4h-12.3
								c-0.2-0.2-0.3-0.6,0-0.9c1.8-1.9,11.5-5.1,11.9-5.4c0.5-0.3,3.5,2,7.4-0.2c0,0,0.7,3.1,0.8,5.1c0,0.8-0.6,1.5-1.4,1.5h-3.1
								C133.5,167.8,133.1,167.6,132.9,167.4z"/>
						</g>
						<polygon class="st3" points="108.6,69.5 104.9,83.9 94.7,77.1 90,80.7 103.4,93.2 113,84.3 						"/>
						<path class="st1" d="M94.6,77.1l-3-5.9c-0.3-0.6-1.1-0.9-1.7-0.5l0,0c-1.6,1-2.5,2.9-2.1,4.8s1.1,4.1,2.2,5.3L94.6,77.1z"/>
						<path class="st2" d="M91,65.7l-3.3-0.3c-0.5,0-0.8,0.3-0.7,0.7l2.3,9.2c0.1,0.4,0.6,0.8,1,0.8l3.3,0.3
							c0.8,0.1,1.2,1.4,0.7-0.7L92,66.6C91.9,66.1,91.4,65.8,91,65.7z"/>
						<path class="st1" d="M94.7,77.1l0.7-2.2c0.3-0.6,0.1-1.2-0.4-1.6l-1.1-0.8c-0.3-0.2-0.8-0.2-1.1,0.1l0,0
							c-0.3,0.3-0.3,0.9,0.1,1.2l0.5,0.4l0.5,0.4l-1.3,1.9L94.7,77.1z"/>
						<path class="st2" d="M137.8,159.1c0-3.2-3.7-56.5-3.7-56.5s-7.5-7.3-11.6-6.5c-4.1-0.8-13.4,4.7-13.4,4.7s0.2,55.2,0.2,58.4
							h8.9c0,0,0.1-25.4,3.5-43.8c0.2-0.8,1.4-0.9,1.6-0.1c3.5,18.4,5.7,43.9,5.7,43.9h8.8V159.1z"/>
						<path class="st3" d="M122.6,60.9c0,0,10.5,2.6,11.9,4.2c1.5,1.7,6.9,12.1,6.8,15.6c-0.1,4.1-7.1,12.9-7,12.3v12.4
							c0,0-16,5-25.7-1.1c0,0-1.1-31.7,0.2-35.3c0.4-1.1,5.7-5.7,7.2-6.2C117.6,62.2,122.6,60.9,122.6,60.9z"/>
						<path class="st3" d="M141.3,80.7c-0.1,3.7-5.7,11-6.8,12.2l0,0c-0.1,0.1-0.2,0.1-0.2,0.1l-3.5,3.2l-4.3-3.8
							c0,0,7.8-5.6,6.8-12.8c-0.8-5-6-14.1-6-14.1c-1.8-1-3.6-2.9-4.9-4.5c0.2-0.1,0.3-0.1,0.3-0.1s10.5,2.6,11.9,4.2
							C135.9,66.8,141.4,77.2,141.3,80.7z"/>
						<path class="st1" d="M123.2,55.1v7.4c0,0-2.4,7.4-8,1.6l-0.5-5.9L123.2,55.1z"/>
						<path class="st2" d="M108.6,49.3c0,0-9.5-2-3.6-10.1c0,0,1,4.3,6.1,0.6c2.6-1.9,6.5-2.3,10.8,0c4.6,2.5,6.2,10.2,2.3,14.2
							l-7.7-1.6L108.6,49.3z"/>
						<path class="st1" d="M108.6,49.3c0,0-1.1,12.8,7.4,12c6.6-0.6,6.4-5.7,6.4-5.7s2.2-0.4,2.3-2.4c0.1-1.9-0.5-3.6-2.4-2.3
							c0,0-3.5-2.2-3.7-3.8C118.6,47.2,114.5,49.4,108.6,49.3z"/>
						<path class="st4" d="M119.9,104.5c-0.4,0.5-0.3,1.4,0.3,1.9l1.4,1.2c0.6,0.5,1.5,0.5,1.9-0.1l4.5-5.6l-4.3-3.3l-4.7,3.3
							c-0.3,0.2-0.3,0.7,0,1c0.2,0.1,0.5,0.2,0.8,0.2c0.9-0.1,1.2-0.6,1.2-0.6L119.9,104.5z"/>
						<path class="st3" d="M122.9,98.6l5.1,4.1c0,0,13.7-15.2,13.8-21c0-3.3-3.9-11.1-6.4-15.4h-8.9c0,0,6.4,9.6,8.3,14.1
							c0.4,0.9,0.3,1.9-0.3,2.6C132.1,86.4,125.3,96.3,122.9,98.6z"/>
						<path class="st5" d="M135.4,66.2c0,0,5.1,12.6,5.1,15.1c0,5-11,16.9-13.9,20.1l1.4,1.2c0,0,13.7-15.2,13.8-21
							C141.8,78.3,137.9,70.5,135.4,66.2z"/>
						<path class="st6" d="M112.4,59.4c-0.9-1-1-2.7-1-2.7s-1,0-1.1-0.1s0.3-3.7,0.2-4.3c-0.1-0.4-0.3-2.2-0.4-3.1
							c-0.6,0-0.8,0.1-1.4,0c0,0-1.1,12.8,7.4,12C114,61.3,113.3,60.4,112.4,59.4z"/>
					</g>
				</g>
				<g>
					<path class="st2" d="M75.3,64.1l-11.6,4.2c-0.4,0.1-0.7-0.1-0.7-0.5l0,0c0-0.4,0.3-0.8,0.7-1l11.6-4.2c0.4-0.1,0.7,0.1,0.7,0.5
						l0,0C76,63.5,75.7,64,75.3,64.1z"/>
					<path class="st2" d="M75.3,56.2l-11.6,4.2c-0.4,0.1-0.7-0.1-0.7-0.5l0,0c0-0.4,0.3-0.8,0.7-1l11.6-4.2c0.4-0.1,0.7,0.1,0.7,0.5
						l0,0C76,55.6,75.7,56,75.3,56.2z"/>
					<path class="st2" d="M78.8,58.8l-19.2,7c-0.4,0.1-0.7-0.1-0.7-0.5l0,0c0-0.4,0.3-0.8,0.7-1l19.2-7c0.4-0.1,0.7,0.1,0.7,0.5l0,0
						C79.6,58.2,79.2,58.6,78.8,58.8z"/>
				</g>
				<g>
					<path class="st2" d="M75.5,121.6l-11.6,4.2c-0.4,0.1-0.7-0.1-0.7-0.5l0,0c0-0.4,0.3-0.8,0.7-1l11.6-4.2
						c0.4-0.1,0.7,0.1,0.7,0.5l0,0C76.2,121,75.8,121.5,75.5,121.6z"/>
					<path class="st2" d="M75.5,113.6l-11.6,4.2c-0.4,0.1-0.7-0.1-0.7-0.5l0,0c0-0.4,0.3-0.8,0.7-1l11.6-4.2
						c0.4-0.1,0.7,0.1,0.7,0.5l0,0C76.2,113.1,75.8,113.5,75.5,113.6z"/>
					<path class="st2" d="M79,116.3l-19.2,7c-0.4,0.1-0.7-0.1-0.7-0.5l0,0c0-0.4,0.3-0.8,0.7-1l19.2-7c0.4-0.1,0.7,0.1,0.7,0.5l0,0
						C79.7,115.7,79.4,116.1,79,116.3z"/>
				</g>
				<g>
					<path class="st2" d="M62.5,90.2L74.1,86c0.4-0.1,0.7,0.1,0.7,0.5l0,0c0,0.4-0.3,0.8-0.7,1l-11.6,4.2c-0.4,0.1-0.7-0.1-0.7-0.5
						l0,0C61.8,90.8,62.1,90.3,62.5,90.2z"/>
					<path class="st2" d="M58.9,95.5l19.2-7c0.4-0.1,0.7,0.1,0.7,0.5l0,0c0,0.4-0.3,0.8-0.7,1l-19.2,7c-0.4,0.1-0.7-0.1-0.7-0.5l0,0
						C58.2,96.1,58.5,95.7,58.9,95.5z"/>
				</g>
			</g>
		</g>
	</g>
</g>
</svg>
