<?xml version="1.0" encoding="utf-8"?>
<!-- Generator: Adobe Illustrator 24.0.1, SVG Export Plug-In . SVG Version: 6.00 Build 0)  -->
<svg version="1.1" id="レイヤー_1" xmlns="http://www.w3.org/2000/svg" xmlns:xlink="http://www.w3.org/1999/xlink" x="0px"
	 y="0px" viewBox="0 0 200 200" style="enable-background:new 0 0 200 200;" xml:space="preserve">
<style type="text/css">
	.st0{fill:#F8FAFB;}
	.st1{fill:#17161C;}
	.st2{fill:#1E394C;}
	.st3{fill:#62BDF4;}
	.st4{opacity:0.25;fill:#34648C;enable-background:new    ;}
	.st5{fill:#87D3F9;}
	.st6{fill:#FFCAA6;}
	.st7{fill:#AAC6CE;}
	.st8{fill:#CEE5ED;}
	.st9{fill:#0F2A3F;}
	.st10{opacity:0.43;fill:#CEE5ED;enable-background:new    ;}
</style>
<circle class="st0" cx="100" cy="100" r="100"/>
<g>
	<g>
		<g>
			<g>
				<path class="st1" d="M97.3,121.5c-4.3-1.5-7.8-6.2-7.8-10.5V39c0-4.3,3.5-6.5,7.8-4.9l31.2,11.4c4.3,1.5,7.8,6.2,7.8,10.5v72
					c0,4.3-3.5,6.5-7.8,4.9L97.3,121.5z"/>
				<path class="st2" d="M97.9,123.9c-4.5-1.7-8.1-6.6-8.1-11.1V37c0-4.5,3.6-6.8,8.1-5.2l32.9,12c4.5,1.7,8.1,6.6,8.1,11.1v75.8
					c0,4.5-3.6,6.8-8.1,5.2L97.9,123.9z"/>
				<path class="st3" d="M97.3,118.6c-2.7-1-4.8-3.9-4.8-6.5v-72c0-2.7,2.1-4,4.8-3l31.2,11.4c2.7,1,4.8,3.9,4.8,6.5v72
					c0,2.7-2.1,4-4.8,3L97.3,118.6z"/>
				<path class="st4" d="M128.6,48.5L97.3,37.1c-1.9-0.7-3.5-0.2-4.3,1.1c0.8-0.5,1.9-0.5,3.1,0l31.2,11.4c2.7,1,4.8,3.9,4.8,6.5v72
					c0,0.8-0.2,1.4-0.5,2c1-0.5,1.7-1.6,1.7-3v-72C133.4,52.4,131.2,49.5,128.6,48.5z"/>
				<path class="st2" d="M124.6,46.5L101.3,38l1.1,2.8c0.5,1.3,1.5,2.4,2.7,2.8l15.7,5.7c1.2,0.5,2.3,0.2,2.7-0.8L124.6,46.5z"/>
			</g>
			<path class="st5" d="M127.3,58.4L98.6,47.9c-1.5-0.5-2.8,0.2-2.8,1.7v12.9c0,1.5,1.2,3.3,2.8,3.8l28.7,10.5
				c1.5,0.5,2.8-0.2,2.8-1.7V62.2C130.1,60.7,128.9,58.9,127.3,58.4z"/>
			<path class="st5" d="M127.3,81.2L98.6,70.7c-1.5-0.5-2.8,0.2-2.8,1.7v12.9c0,1.5,1.2,3.3,2.8,3.8l28.7,10.5
				c1.5,0.5,2.8-0.2,2.8-1.7V85C130.1,83.4,128.9,81.7,127.3,81.2z"/>
			<path class="st5" d="M127.3,104.1L98.6,93.7c-1.5-0.5-2.8,0.2-2.8,1.7v12.9c0,1.5,1.2,3.3,2.8,3.8l28.7,10.5
				c1.5,0.5,2.8-0.2,2.8-1.7V108C130.1,106.4,128.9,104.8,127.3,104.1z"/>
			<g>
				<path class="st2" d="M118.2,60.6l-10-3.6c-0.3-0.2-0.6,0.1-0.6,0.4l0,0c0,0.3,0.3,0.7,0.6,0.8l10,3.6c0.3,0.2,0.6-0.1,0.6-0.4
					l0,0C118.8,61.1,118.5,60.7,118.2,60.6z"/>
				<path class="st2" d="M118.2,67.4l-10-3.6c-0.3-0.2-0.6,0.1-0.6,0.4l0,0c0,0.3,0.3,0.7,0.6,0.8l10,3.6c0.3,0.2,0.6-0.1,0.6-0.4
					l0,0C118.8,67.9,118.5,67.5,118.2,67.4z"/>
				<path class="st2" d="M121.2,65.2l-16.4-6c-0.3-0.2-0.6,0.1-0.6,0.4l0,0c0,0.3,0.3,0.7,0.6,0.8l16.4,6c0.3,0.2,0.6-0.1,0.6-0.4
					l0,0C121.8,65.6,121.5,65.2,121.2,65.2z"/>
			</g>
			<g>
				<path class="st2" d="M118.2,85l-10-3.6c-0.3-0.2-0.6,0.1-0.6,0.4l0,0c0,0.3,0.3,0.7,0.6,0.8l10,3.6c0.3,0.2,0.6-0.1,0.6-0.4l0,0
					C118.8,85.4,118.5,85.1,118.2,85z"/>
				<path class="st2" d="M121.2,89.6l-16.4-6c-0.3-0.2-0.6,0.1-0.6,0.4l0,0c0,0.3,0.3,0.7,0.6,0.8l16.4,6c0.3,0.2,0.6-0.1,0.6-0.4
					l0,0C121.8,90,121.5,89.6,121.2,89.6z"/>
			</g>
			<g>
				<path class="st2" d="M118.2,106.3l-10-3.6c-0.3-0.2-0.6,0.1-0.6,0.4l0,0c0,0.3,0.3,0.7,0.6,0.8l10,3.6c0.3,0.2,0.6-0.1,0.6-0.4
					l0,0C118.8,106.8,118.5,106.4,118.2,106.3z"/>
				<path class="st2" d="M118.2,113l-10-3.6c-0.3-0.2-0.6,0.1-0.6,0.4l0,0c0,0.3,0.3,0.7,0.6,0.8l10,3.6c0.3,0.2,0.6-0.1,0.6-0.4
					l0,0C118.8,113.6,118.5,113.2,118.2,113z"/>
				<path class="st2" d="M121.2,110.8l-16.4-6c-0.3-0.2-0.6,0.1-0.6,0.4l0,0c0,0.3,0.3,0.7,0.6,0.8l16.4,6c0.3,0.2,0.6-0.1,0.6-0.4
					l0,0C121.8,111.4,121.5,111,121.2,110.8z"/>
			</g>
		</g>
		<g>
			<path class="st6" d="M89.8,162.7c0,0-1.5-0.5-1.7-3.8h-4.4l-0.5,4.6l3.3,2.7l2.8-1.4L89.8,162.7z"/>
			<path class="st2" d="M83.3,163.3c0,0,5.1,1.7,6.5-0.7c0,0,9.4,3.5,9.3,4.6c-0.1,1.7-7.9,2-9.7,1.6l-1.5-1.5l-0.7,1.7H83
				C83.1,169,83.2,163.6,83.3,163.3z"/>
			<path class="st6" d="M73.5,162.7c0,0-1.4-0.6-1.5-3.9l-4.3-0.2l-0.6,4.5l3.1,2.9l2.9-1.3L73.5,162.7z"/>
			<path class="st2" d="M67,163c0,0,5,1.9,6.5-0.4c0,0,8.3,3,8.7,4.3c0.5,1.4-7.6,2.3-9.3,1.7l-1.4-1.6l-0.8,1.7l-4.3-0.2
				C66.5,168.7,66.8,163.3,67,163z"/>
			<path class="st2" d="M64,110.9c0,0,2.8,11.5,3.5,13.5c0.7,1.9,2.1,11.2,2.2,11.6c0.1,0.3-3.2,24.4-3.2,24.4s4.5,1,6.2-0.2
				l4.9-24.3L75.5,112L64,110.9z"/>
			<path class="st2" d="M64.6,110.2c0,0,4.4,7.4,8.3,10.8c3.9,3.3,8.7,12.3,8.7,12.3l0.6,26.7l0,0c1.9,1.1,4.2,1.2,6.2,0.2l0.3-0.2
				c0,0,0.7-27.7,0.6-29.6c-0.2-1.8-9.9-23-9.9-23L64.6,110.2z"/>
			<path class="st2" d="M81.6,61.3c0,0-3.4,12.1-8.9,11.7c-4.8-0.3-5.7-5.3-4.6-11.5c1.2-6.4,6.5-5.5,9.6-5.5c0,0,3.8,0,4.4-3
				C82.1,53,86.5,59.1,81.6,61.3"/>
			<path class="st7" d="M72.9,75.9c0,0-6.7-1.2-9.8,13.1c-1.3,6,5.5,15.4,5.5,15.4l7.1-13.8L72.9,75.9z"/>
			<path class="st6" d="M101,67.9c0,0,2.5-7,2.5-8.9s1.4-0.2,1.4,1.2s-0.4,3-0.4,3s2,0.2,2,1.1s-0.6,4.2-1.5,4.6L101,67.9z"/>
			<path class="st8" d="M76.6,76.9c4.5,2.3,14,8.3,16.2,6.3c2.2-2,8.2-15.4,8.2-15.4l3.9,1.1c0,0-8.4,22.4-10.9,22.3
				c-2.5-0.1-10.9-1.7-10.9-1.7s-0.8,15.8-3,20.2c0,0-11.3,4.1-17.2,0.8c0,0,4.9-6.2,3.6-15.4C65.1,85.8,67.7,72.4,76.6,76.9z"/>
			<g>
				<path class="st6" d="M81.6,61.3c0,0,0.4,2.1,1.1,3.1c0.6,1,2,2,2,2l-1.1,1.4c0,0,0.8,4.9-4.3,5.8l-0.5,4.8l-5.8-2l-0.2-3.3
					c0,0,0.9-1,1-2.1c0,0-1.1-1.1-0.8-2.4c0.4-1.3,1.5-2.4,2.1-1.8c0.5,0.5,0.6,1.4,0.6,1.4h0.8c0,0-0.2-2.2,0.3-3.1
					C77.3,63.7,78.9,61.9,81.6,61.3z"/>
				<path class="st6" d="M78.7,78.2l0.5-4.8c5.1-0.9,4.3-5.8,4.3-5.8l1.1-1.4c0,0-1.4-1-2-2c-0.7-0.9-1.1-3-1.1-3
					c-0.2,0.1-0.5,0.2-0.7,0.2c0.4,1,0.9,2.7,1,4.3c0.2,2.4-0.2,5.2-3.6,7.4c-1.1,0.7-1.6,2.7-1.7,4.5L78.7,78.2z"/>
			</g>
		</g>
		<path class="st9" d="M76.8,126.1c-3.8-0.8-7.4-3.1-10.3-5.4c-0.9-3.4-2.1-8.1-2.4-9.5c0.5,0.2,0.9,0.3,1.4,0.4
			c1.4,2.4,4.6,7,7.4,9.4c1.2,1.1,2.6,2.7,3.8,4.3L76.8,126.1z"/>
	</g>
	<path class="st10" d="M130.9,152c-0.1-1.8-9-4.9-20-7c-10.9-2.1-19.8-2.2-19.8-0.4c0.1,1.8,9,4.9,20,7
		C122.1,153.6,130.9,153.8,130.9,152z"/>
</g>
</svg>
