<?xml version="1.0" encoding="utf-8"?>
<!-- Generator: Adobe Illustrator 24.0.1, SVG Export Plug-In . SVG Version: 6.00 Build 0)  -->
<svg version="1.1" id="レイヤー_1" xmlns="http://www.w3.org/2000/svg" xmlns:xlink="http://www.w3.org/1999/xlink" x="0px"
	 y="0px" viewBox="0 0 200 200" style="enable-background:new 0 0 200 200;" xml:space="preserve">
<style type="text/css">
	.st0{fill:#FFFFFF;}
	.st1{clip-path:url(#SVGID_2_);}
	.st2{fill:#FFCAA6;}
	.st3{fill:#2CAAA2;}
	.st4{fill:#EFEFEF;}
	.st5{fill:url(#SVGID_3_);}
	.st6{fill:#232323;}
	.st7{fill:#D88344;}
	.st8{fill:url(#SVGID_4_);}
	.st9{clip-path:url(#SVGID_6_);}
	.st10{fill:none;stroke:#3E8CCC;stroke-width:1.1345;stroke-miterlimit:10;}
	.st11{fill:#F2BF75;}
	.st12{fill:#1E394C;}
	.st13{fill:#0F2A3F;}
	.st14{fill:#CEE5ED;}
	.st15{fill:#AAC6CE;}
	.st16{fill:#80A9B2;}
	.st17{opacity:0.67;fill:#EA9249;enable-background:new    ;}
	.st18{fill:#3E8CCC;}
	.st19{fill:#2173AA;}
	.st20{fill:#62BDF4;}
</style>
<circle class="st0" cx="100" cy="100" r="100"/>
<g>
	<g>
		<defs>
			
				<rect id="SVGID_1_" x="-89.4" y="-17.5" transform="matrix(0.7071 -0.7071 0.7071 0.7071 -19.3381 53.4622)" width="288.5" height="135.1"/>
		</defs>
		<clipPath id="SVGID_2_">
			<use xlink:href="#SVGID_1_"  style="overflow:visible;"/>
		</clipPath>
		<g class="st1">
			<g>
				<path class="st2" d="M100.6,104c-0.8-0.5-0.6-0.6-1.5-0.4s-3.2,1.2-4.3,2.1l0,0c-4.9-0.9-5.8-4.4-7.9-6.1
					c-1.1-7.3-6.7-27.2-6.7-27.2l-8.5,3.2c1.2,8.3,6.2,24.3,7.5,27.9c0.2,0.4,0.5,0.8,0.8,1.1c0.4,0.9,1.2,1.8,2.4,2.4
					c5.1,2.9,9.9,3,11.7,2.8c0.1,0.1,0.2,0.1,0.2,0.2c1.2,0.6,6.3,1.4,7.5,1c1.2-0.4,3.7-2.9,3.5-3.6
					C105.1,106.3,102.7,105.2,100.6,104z"/>
				<path class="st3" d="M72.5,67.1C70.1,72.4,71,89.5,71,89.5l15.3-3.6C86.3,85.9,78.8,52.9,72.5,67.1z"/>
				<path class="st4" d="M85.5,131.2c-2.7,1.3-5.3,2.5-7.9,3.6c-13.6,5.4-26.3,6.6-35.1,1.3c0.2-5,0.3-10.3,0.4-12.6
					c0-0.2,0.1-0.5,0.1-0.7l4.7-0.1h0.2l0,0l25.4-0.5l0,0h1.6h1.6l7.5-0.2c0.1,0.3,0.2,0.7,0.2,1.1
					C84.8,125.2,85.2,128.2,85.5,131.2z"/>
				
					<linearGradient id="SVGID_3_" gradientUnits="userSpaceOnUse" x1="42.6367" y1="91.9359" x2="84.9997" y2="91.9359" gradientTransform="matrix(1 0 0 1 0 -5.901144e-06)">
					<stop  offset="0" style="stop-color:#51B9B1"/>
					<stop  offset="1" style="stop-color:#66C0BB"/>
				</linearGradient>
				<path class="st5" d="M61.3,59.9c-9.2,0.3-12.2,3.4-13.8,8.7c-1.8,6.1-4.9,42.5-4.9,54.8c0,0,27.3,1.9,42.4-0.6
					c-4.7-16-5.3-44.8-5.3-53.4C79.7,63,72.9,59.6,61.3,59.9z"/>
				<path class="st6" d="M69.4,45c0.9-0.6,5.6-0.1,4.2-9.6c-0.5-3.5-3.7-1.1-6.1-0.7c-2.3,0.5-0.8,10.4-0.8,10.4L69.4,45z"/>
				<path class="st2" d="M57.7,42.7c0.4,2.5,1.1,16.2,0.8,19.4c-0.3,3.2,15.1,4,13,0.6S71,47.6,71,47.6L57.7,42.7z"/>
				<path class="st7" d="M58.8,43L71,47.5c0,0-0.8,6.7-0.3,11.5c-9.3-0.7-11.7-12.5-11.9-14.7C58.8,43.8,58.8,43.4,58.8,43z"/>
				<path class="st2" d="M75,42.2c1.1,7.8,3.1,15.6-6.4,14.3c-9.5-1.3-11-13.4-10.9-15.7C57.8,28.6,72.7,26.9,75,42.2z"/>
				<path class="st6" d="M73.9,33.6C71.6,31,59.2,30,57.1,32.3c-0.2-0.7,0.2-1.6,0.2-1.6l-0.5-0.2c0,0.1-0.6,1.1-0.2,2.1
					c0,0,0,0.1,0.1,0.1C54.4,33.1,55.8,43,55.8,43l2.6-0.2c0.9-0.6,4-5.4,4.7-8.3C68.1,35.3,76.7,36.8,73.9,33.6z"/>
				<path class="st2" d="M72.6,104.3c-1,0.1-4.7,0.7-6,0.4c-4.4-1.1-15.7-6.1-21.8-8.9c3.7-8.1,9.2-22.5,9.2-22.5l-8.7-2.5
					c-4,7.5-9.6,23.2-10.7,26.8c-0.1,0.3-0.1,0.6-0.1,0.9c0,1.5,0.6,2.9,2.3,4c4.9,2.9,23,5.8,28,6.3c0.1,0.2,0.2,0.3,0.4,0.5
					c1.2,0.7,6.8,1.2,8,1.4c1.5,0.2,5.8,0.6,5.7,0C78.8,109.8,77.1,104,72.6,104.3z"/>
				
					<linearGradient id="SVGID_4_" gradientUnits="userSpaceOnUse" x1="37.3717" y1="74.0745" x2="56.7908" y2="74.0745" gradientTransform="matrix(1 0 0 1 0 -5.901144e-06)">
					<stop  offset="0" style="stop-color:#51B9B1"/>
					<stop  offset="1" style="stop-color:#66C0BB"/>
				</linearGradient>
				<path class="st8" d="M50.6,63.2c-4.9,3.2-13.2,18.1-13.2,18.1l14.9,5.1C52.2,86.4,63.5,54.5,50.6,63.2z"/>
				<path class="st2" d="M60,43.7c0.9,1.9,1.9,3.8-0.7,4.1c-2.7,0.3-4-2.7-4-3.2C54.3,41.4,58.4,39.9,60,43.7z"/>
			</g>
			<path class="st0" d="M132.7,113.3H21.6c-0.9,0-1.6-0.7-1.6-1.6l0,0c0-0.9,0.7-1.6,1.6-1.6h111.1c0.9,0,1.6,0.7,1.6,1.6l0,0
				C134.3,112.4,133.6,113.3,132.7,113.3z"/>
			<path class="st6" d="M128.1,107.3H93.7c-1.3,0-2.2-1.1-1.9-2.3l3.7-20.7c0.2-1.3,1.5-2.3,2.8-2.3h34.4c1.3,0,2.2,1.1,1.9,2.3
				l-3.7,20.7C130.7,106.2,129.4,107.3,128.1,107.3z"/>
		</g>
	</g>
</g>
<g>
	<g>
		<defs>
			<circle id="SVGID_5_" cx="100.5" cy="102.5" r="87.5"/>
		</defs>
		<clipPath id="SVGID_6_">
			<use xlink:href="#SVGID_5_"  style="overflow:visible;"/>
		</clipPath>
		<g class="st9">
			<g>
				<g>
					<path class="st10" d="M186,65.1"/>
				</g>
				<g>
					<g>
						<g>
							<polygon class="st11" points="128.3,224.1 120.8,225.2 121.5,228.1 127.5,231 130,228 129.4,224.9 							"/>
							<path class="st12" d="M125.7,235.3l3.5,0.2c0.9,0,1.5-0.8,1.5-1.7c-0.2-2.3-0.8-5.8-0.8-5.8c-4.5,2.4-7.8-0.2-8.3,0.2
								c-0.5,0.2-11.6,3.9-13.6,5.9c-0.4,0.2-0.2,0.8,0,1l14,0.2c0.5,0,0.8-0.2,1-0.5l0.5-0.6c0.2-0.2,0.4-0.2,0.5,0l0.5,0.8
								C124.8,235.1,125.1,235.3,125.7,235.3z"/>
							<path class="st12" d="M144.8,170.8c-3.6,0.5-18,4.1-26,14.4c-1.4,1.9-2.7,3.9-2.6,6.3l4.3,34.1l0,0c2.8,1.3,6.2,1.3,9-0.2
								l0.5-0.2l0.2-30c0.2-1.4,0.9-2.4,2.1-3.1c4.7-3,10.5-1.5,18-6.4c10.5-6.9,4.7-13.3,4.7-13.3S149.6,169.9,144.8,170.8z"/>
						</g>
						<g>
							<polygon class="st11" points="151.4,224.1 143.8,225.3 144.6,228.1 150.6,231 152.9,228 152.5,224.9 							"/>
							<path class="st12" d="M148.7,235.5h3.5c0.9,0,1.5-0.8,1.5-1.7c-0.2-2.3-0.9-5.8-0.9-5.8c-4.3,2.6-7.8-0.2-8.3,0.2
								c-0.5,0.4-11.4,4.1-13.5,6.2c-0.4,0.4-0.2,0.8,0,1h14c0.5,0,0.8-0.2,1-0.5l0.5-0.8c0.2-0.2,0.4-0.2,0.5,0l0.6,0.8
								C148,235.1,148.4,235.5,148.7,235.5z"/>
							<path class="st12" d="M158.9,166.2c-3.7,1.1-14.8,8.2-21.8,20.2c-1.3,2.2-2.3,4.5-1.8,6.9l7.9,32l0,0c3,1.4,6.5,1.1,9.4-0.6
								l0.2-0.2l-3.2-30.4c-0.2-1.4,0.6-2.6,1.7-3.5c4.5-3.9,10.8-1,18-7.3c10.3-8.8,3.2-16.7,3.2-16.7S163.9,164.7,158.9,166.2z"/>
						</g>
						<path class="st13" d="M137.1,172.7c3.4-1.1,6.2-1.8,7.5-2.1c0.6,0.6,2.1,1.1,4.5,1.7c-4.1,3.5-8.6,8.2-12,14.1
							c-0.8,1.4-1.4,2.8-1.8,4.3c-0.5,0-1,0.2-1.5,0.5C133.8,187.9,133.8,178.5,137.1,172.7z"/>
					</g>
					<path class="st14" d="M142.5,130.5c-3.2,2.6-4.9,6.3-4.7,10.3l6.3,28.8c0.6,1.9,2.8,2.8,12.7,3.5c7.1,0.6,13.7-0.9,16.1-1.4
						c5.4-0.9-0.8-32-5-39.7c-4.1-7.9-14.2-6.5-14.2-6.5S147.6,126.9,142.5,130.5z"/>
					<path class="st15" d="M143.5,162.8h-31.1v-5.5c0,0,14.6,0.4,20-0.6c5.4-1,5.5-18.3,5.5-18.3L143.5,162.8z"/>
					<path class="st2" d="M153.6,125.6l-1.4-7.3l-7.9,6l1.3,6.2C151.2,136.6,153.7,125.5,153.6,125.6z"/>
					<path class="st12" d="M131.3,100.5c0,0,0.9,3.4,5.8,1.4c4.7-1.9,11.8-3.2,15.3,0.2c3.6,3.6,6.3,10,2.4,15
						c0-0.6-0.2-1.4-0.5-2.2c-1.1-2.6-3.4,0.9-3.4,0.9c-4-2.3-5.4-4.7-5.4-4.7c-6,3.7-10.3,1.7-10.3,1.7S125.3,109.2,131.3,100.5z"
						/>
					<path class="st2" d="M145.6,111c-6,3.7-10.3,1.7-10.3,1.7c-1.3,2.2-0.2,14.8,7.5,15.3c7.8,0.5,9.4-7.8,9.4-7.8
						c1.9,0,3.6-1.9,2.2-5.3c-1.1-2.6-3.4,0.9-3.4,0.9C147,113.4,145.6,111,145.6,111z"/>
					<g>
						<path class="st14" d="M80.8,139.6l4,19.7h39.1l-4.3-21.2c-0.4-1.5-1.8-2.7-3.4-2.7H84C81.9,135.5,80.3,137.4,80.8,139.6z"/>
						<path class="st16" d="M83.4,160.8v0.5c0,0.9,0.6,1.5,1.5,1.5h53.4c0.9,0,1.5-0.6,1.5-1.5v-0.5c0-0.9-0.6-1.5-1.5-1.5H84.9
							C84,159.2,83.4,159.8,83.4,160.8z"/>
						<path class="st15" d="M83.4,160.8v0.5c0,0.9,0.6,1.5,1.5,1.5h39.4c-0.9,0-1.5-0.6-1.5-1.5v-0.5c0-0.9,0.6-1.5,1.5-1.5H84.9
							C84,159.2,83.4,159.8,83.4,160.8z"/>
					</g>
					<path class="st14" d="M136.6,163.2h36.5c0.5,0,1-0.4,1.4-0.9c2.6-4.7-2.2-23.8-6.5-30.3c-2.1-3.2-4.5-3.5-6.8-3.2
						c0,0-4,0.2-3.1,5.4c1,5.3,9.2,20.6,5.4,21c-3,0.4-20.6,2.2-27,2.8V163.2z"/>
					<path class="st15" d="M163.7,155c2.6-0.6-4.7-15.7-5.5-20.9c-0.9-5.1,3.1-5.4,3.1-5.4c1.5-0.2,3.2-0.2,4.7,0.9
						c-1-0.4-2.4-0.5-3.5-0.4c0,0-4.1-0.2-3.2,5c0.9,5.4,8.8,21,5,21.5c-4.9,0.8-27.6,2.3-27.6,2.3
						C142.8,157.3,160.7,155.7,163.7,155z"/>
					<path class="st2" d="M136.6,163.2v-4.3c-1.5-0.2-5.6-0.4-6.2-0.2c-0.9,0.2-2.2,1.9-3,3.2c-0.4,0.6,0,1.3,0.6,1.3L136.6,163.2
						L136.6,163.2z"/>
					<path class="st17" d="M143.1,128c1.3,0,2.4-0.2,3.5-0.5c-0.2,0-0.2,0-0.2,0c-6.5,1-7.3-5.5-7.3-5.5s-1,0-1.4,0
						c-0.4,0,0.2-4.7,0.2-6.2c0-1-0.2-2.2-0.4-2.7c-1.3-0.2-1.9-0.5-1.9-0.5C134.1,115,135.1,127.3,143.1,128z"/>
				</g>
				<g>
					<g>
						<path class="st18" d="M59,165.9v0.9c0,1.5,1.3,2.8,2.8,2.8h139c1.5,0,2.8-1.3,2.8-2.8v-0.9c0-1.5-1.3-2.8-2.8-2.8h-139
							C60.2,163,59,164.3,59,165.9z"/>
						<path class="st19" d="M59,165.9v0.9c0,0.4,0,0.6,0.2,0.9c0.4-1.1,1.4-1.9,2.7-1.9h139c1.3,0,2.3,0.8,2.7,1.9
							c0-0.4,0.2-0.5,0.2-0.9v-0.9c0-1.5-1.3-2.8-2.8-2.8H61.8C60.2,163,59,164.3,59,165.9z"/>
					</g>
				</g>
			</g>
		</g>
	</g>
</g>
<g>
	<path class="st20" d="M173.6,52.6h-42c-2.1,0-3.8,1.7-3.8,3.8v18.9c0,2.1,1.7,3.8,3.8,3.8h2.8v4.7c0,0.6,0.7,1,1.3,0.6l5.7-5.1
		h32.1c2.1,0,3.8-1.7,3.8-3.8V56.6C177.6,54.3,175.7,52.6,173.6,52.6z"/>
</g>
</svg>
