<?xml version="1.0" encoding="utf-8"?>
<!-- Generator: Adobe Illustrator 24.0.1, SVG Export Plug-In . SVG Version: 6.00 Build 0)  -->
<svg version="1.1" id="レイヤー_1" xmlns="http://www.w3.org/2000/svg" xmlns:xlink="http://www.w3.org/1999/xlink" x="0px"
	 y="0px" viewBox="0 0 200 200" style="enable-background:new 0 0 200 200;" xml:space="preserve">
<style type="text/css">
	.st0{fill:#FFFFFF;}
	.st1{fill:#FFCAA6;}
	.st2{fill:#2CAAA2;}
	.st3{fill:#EFEFEF;}
	.st4{fill:url(#SVGID_1_);}
	.st5{fill:#232323;}
	.st6{fill:#D88344;}
	.st7{fill:url(#SVGID_2_);}
	.st8{fill:#377ADB;}
	.st9{fill:#4D8DFF;}
	.st10{fill:#6EA9FF;}
	.st11{fill:#FFC84D;}
</style>
<g id="レイヤー_2_1_">
	<circle class="st0" cx="100" cy="100" r="100"/>
</g>
<g>
	<g>
		<path class="st1" d="M125.1,129.6c-1-0.6-0.7-0.7-1.9-0.5c-1.2,0.2-3.9,1.5-5.3,2.6l0,0c-6.1-1.1-7.2-5.4-9.7-7.5
			c-1.4-9-8.3-33.6-8.3-33.6l-10.5,3.9c1.5,10.3,7.7,30,9.2,34.5c0.3,0.5,0.6,1,1,1.3c0.5,1.1,1.5,2.2,3,3
			c6.3,3.6,12.2,3.7,14.5,3.5c0.1,0.1,0.2,0.1,0.3,0.2c1.5,0.8,7.8,1.7,9.3,1.2s4.6-3.6,4.3-4.5
			C130.6,132.4,127.6,131.1,125.1,129.6z"/>
		<path class="st2" d="M90.4,84c-3,6.6-1.9,27.7-1.9,27.7l18.9-4.5C107.4,107.2,98.2,66.5,90.4,84z"/>
		<path class="st3" d="M106.4,163.1c-3.3,1.6-6.5,3.1-9.8,4.4c-16.8,6.7-32.5,8.2-43.3,1.6c0.2-6.2,0.4-12.7,0.5-15.6
			c0-0.3,0.1-0.6,0.1-0.9l5.8-0.1H60l0,0l31.3-0.6l0,0h2h2l9.3-0.2c0.1,0.4,0.2,0.9,0.3,1.3C105.6,155.8,106,159.4,106.4,163.1z"/>
		
			<linearGradient id="SVGID_1_" gradientUnits="userSpaceOnUse" x1="53.5" y1="85.3201" x2="105.8" y2="85.3201" gradientTransform="matrix(1 0 0 -1 0 200)">
			<stop  offset="0" style="stop-color:#51B9B1"/>
			<stop  offset="1" style="stop-color:#66C0BB"/>
		</linearGradient>
		<path class="st4" d="M76.6,75.1c-11.3,0.4-15.1,4.2-17,10.7c-2.2,7.5-6.1,52.5-6.1,67.6c0,0,33.7,2.4,52.3-0.7
			c-5.8-19.8-6.5-55.3-6.6-65.9C99.2,78.9,90.9,74.7,76.6,75.1z"/>
		<path class="st5" d="M86.5,56.7c1.1-0.8,6.9-0.1,5.2-11.9c-0.6-4.3-4.6-1.4-7.5-0.9c-2.9,0.6-1,12.9-1,12.9L86.5,56.7z"/>
		<path class="st1" d="M72.1,53.9c0.5,3.1,1.4,20,1,23.9s18.6,5,16.1,0.7s-0.7-18.6-0.7-18.6L72.1,53.9z"/>
		<path class="st6" d="M73.4,54.3l15.1,5.5c0,0-1,8.3-0.4,14.2c-11.5-0.9-14.5-15.4-14.7-18.2C73.4,55.3,73.4,54.8,73.4,54.3z"/>
		<path class="st1" d="M93.4,53.3c1.4,9.6,3.8,19.3-7.9,17.7S71.9,54.4,72,51.6C72.2,36.5,90.6,34.4,93.4,53.3z"/>
		<path class="st5" d="M92.1,42.6c-2.8-3.2-18.2-4.4-20.8-1.6c-0.3-0.9,0.3-2,0.3-2L71,38.7c0,0.1-0.7,1.4-0.3,2.6
			c0,0,0,0.1,0.1,0.1c-2.8,0.6-1,12.9-1,12.9L73,54c1.1-0.8,5-6.7,5.8-10.3C84.9,44.8,95.6,46.6,92.1,42.6z"/>
		<path class="st1" d="M90.5,129.9c-1.2,0.1-5.8,0.9-7.4,0.5c-5.4-1.3-19.4-7.5-26.9-11c4.6-10,11.4-27.8,11.4-27.8l-10.7-3.1
			c-5,9.2-11.8,28.6-13.2,33.1c-0.1,0.4-0.1,0.8-0.1,1.1c0,1.8,0.8,3.6,2.9,4.9c6,3.6,28.4,7.1,34.6,7.8c0.1,0.2,0.3,0.4,0.5,0.6
			c1.5,0.9,8.4,1.5,9.9,1.7c1.8,0.3,7.2,0.8,7,0C98.1,136.7,96.1,129.6,90.5,129.9z"/>
		
			<linearGradient id="SVGID_2_" gradientUnits="userSpaceOnUse" x1="46.9758" y1="107.3712" x2="70.95" y2="107.3712" gradientTransform="matrix(1 0 0 -1 0 200)">
			<stop  offset="0" style="stop-color:#51B9B1"/>
			<stop  offset="1" style="stop-color:#66C0BB"/>
		</linearGradient>
		<path class="st7" d="M63.3,79.2c-6,4-16.3,22.4-16.3,22.4l18.4,6.3C65.3,107.9,79.3,68.5,63.3,79.2z"/>
		<path class="st1" d="M74.9,55.1c1.1,2.4,2.4,4.7-0.9,5.1c-3.3,0.4-4.9-3.3-5-4C67.9,52.3,72.9,50.4,74.9,55.1z"/>
	</g>
	<path class="st0" d="M164.7,141H27.5c-1.1,0-2-0.9-2-2l0,0c0-1.1,0.9-2,2-2h137.1c1.1,0,2,0.9,2,2l0,0
		C166.7,140,165.8,141,164.7,141z"/>
	<path class="st5" d="M159,133.6h-42.5c-1.6,0-2.7-1.3-2.4-2.9l4.6-25.5c0.3-1.6,1.9-2.9,3.5-2.9h42.5c1.6,0,2.7,1.3,2.4,2.9
		l-4.6,25.5C162.2,132.3,160.6,133.6,159,133.6z"/>
	<g>
		<path class="st8" d="M143.9,55.3c-1.5,0-2.7,1.2-2.7,2.7h5.5C146.6,56.5,145.4,55.3,143.9,55.3z"/>
		<path class="st9" d="M143.9,55.3v26.5c0,1.5-1.2,2.7-2.7,2.7h-19.8V58c0-1.5,1.2-2.7,2.7-2.7H143.9z"/>
		<path class="st10" d="M138.5,81.8h-19.8c0,1.5,1.2,2.7,2.7,2.7h19.8C139.7,84.5,138.5,83.3,138.5,81.8z"/>
		<rect x="124.3" y="59" class="st0" width="16.6" height="0.7"/>
		<rect x="124.3" y="61.7" class="st0" width="16.6" height="0.7"/>
		<rect x="124.3" y="64.4" class="st0" width="16.6" height="0.7"/>
		<rect x="124.3" y="67.2" class="st0" width="16.6" height="0.7"/>
		<rect x="124.3" y="69.9" class="st0" width="16.6" height="0.7"/>
		<rect x="124.3" y="72.6" class="st0" width="16.6" height="0.7"/>
		<rect x="124.3" y="75.3" class="st0" width="16.6" height="0.7"/>
		<rect x="124.3" y="78" class="st0" width="16.6" height="0.7"/>
	</g>
	<g>
		<circle class="st11" cx="164.8" cy="62.6" r="9.7"/>
		<path class="st5" d="M164.8,62.6l7.7,7.7c-4.2,4.2-11.2,4.2-15.5,0c-1.8-1.8-2.9-4.2-3.2-6.8L164.8,62.6z"/>
		<path class="st0" d="M164.8,62.6l-10.9,1.3c-0.1-1.2-0.1-2.5,0.2-3.7s0.7-2.4,1.4-3.4L164.8,62.6z"/>
	</g>
</g>
</svg>
