<?xml version="1.0" encoding="utf-8"?>
<!-- Generator: Adobe Illustrator 24.0.1, SVG Export Plug-In . SVG Version: 6.00 Build 0)  -->
<svg version="1.1" id="レイヤー_1" xmlns="http://www.w3.org/2000/svg" xmlns:xlink="http://www.w3.org/1999/xlink" x="0px"
	 y="0px" viewBox="0 0 200 200" style="enable-background:new 0 0 200 200;" xml:space="preserve">
<style type="text/css">
	.st0{fill:#FFFFFF;}
	.st1{opacity:0.3;fill:#4D8DFF;enable-background:new    ;}
	.st2{opacity:0.3;}
	.st3{fill:#4D8DFF;}
	.st4{fill:#FF4E4A;}
	.st5{fill:#FFC84D;}
	.st6{fill:#FFCAA6;}
	.st7{fill:#D88344;}
	.st8{fill:#232323;}
	.st9{fill:#2CAAA2;}
	.st10{fill:#EFEFEF;}
	.st11{fill:url(#SVGID_1_);}
	.st12{fill:url(#SVGID_2_);}
</style>
<circle class="st0" cx="100" cy="100" r="100"/>
<g>
	<g>
		<path class="st1" d="M47.6,36.3h70.8c4.9,0,8.9,4,8.9,8.9v51.4c0,4.9-4,8.9-8.9,8.9H47.6c-4.9,0-8.9-4-8.9-8.9V45.2
			C38.7,40.3,42.7,36.3,47.6,36.3z"/>
		<g>
			<g class="st2">
				<path class="st3" d="M47.5,45.3h11.8c0.8,0,1.5,0.7,1.5,1.5v8.6c0,0.8-0.7,1.5-1.5,1.5H47.5c-0.8,0-1.5-0.7-1.5-1.5v-8.6
					C46,46,46.7,45.3,47.5,45.3z"/>
				<path class="st3" d="M67.2,45.3H79c0.8,0,1.5,0.7,1.5,1.5v8.6c0,0.8-0.7,1.5-1.5,1.5H67.2c-0.8,0-1.5-0.7-1.5-1.5v-8.6
					C65.7,46,66.4,45.3,67.2,45.3z"/>
				<path class="st3" d="M86.9,45.3h11.8c0.8,0,1.5,0.7,1.5,1.5v8.6c0,0.8-0.7,1.5-1.5,1.5H86.9c-0.8,0-1.5-0.7-1.5-1.5v-8.6
					C85.4,46,86.1,45.3,86.9,45.3z"/>
				<path class="st3" d="M106.6,45.3h11.8c0.8,0,1.5,0.7,1.5,1.5v8.6c0,0.8-0.7,1.5-1.5,1.5h-11.8c-0.8,0-1.5-0.7-1.5-1.5v-8.6
					C105.2,46,105.8,45.3,106.6,45.3z"/>
			</g>
			<g class="st2">
				<path class="st3" d="M47.5,65.1h11.8c0.8,0,1.5,0.7,1.5,1.5v8.6c0,0.8-0.7,1.5-1.5,1.5H47.5c-0.8,0-1.5-0.7-1.5-1.5v-8.6
					C46,65.8,46.7,65.1,47.5,65.1z"/>
				<path class="st3" d="M67.2,65.1H79c0.8,0,1.5,0.7,1.5,1.5v8.6c0,0.8-0.7,1.5-1.5,1.5H67.2c-0.8,0-1.5-0.7-1.5-1.5v-8.6
					C65.7,65.8,66.4,65.1,67.2,65.1z"/>
				<path class="st3" d="M86.9,65.1h11.8c0.8,0,1.5,0.7,1.5,1.5v8.6c0,0.8-0.7,1.5-1.5,1.5H86.9c-0.8,0-1.5-0.7-1.5-1.5v-8.6
					C85.4,65.8,86.1,65.1,86.9,65.1z"/>
				<path class="st3" d="M106.6,65.1h11.8c0.8,0,1.5,0.7,1.5,1.5v8.6c0,0.8-0.7,1.5-1.5,1.5h-11.8c-0.8,0-1.5-0.7-1.5-1.5v-8.6
					C105.2,65.8,105.8,65.1,106.6,65.1z"/>
			</g>
			<g class="st2">
				<path class="st3" d="M47.5,85h11.8c0.8,0,1.5,0.7,1.5,1.5v8.6c0,0.8-0.7,1.5-1.5,1.5H47.5c-0.8,0-1.5-0.7-1.5-1.5v-8.6
					C46,85.7,46.7,85,47.5,85z"/>
				<path class="st3" d="M67.2,85H79c0.8,0,1.5,0.7,1.5,1.5v8.6c0,0.8-0.7,1.5-1.5,1.5H67.2c-0.8,0-1.5-0.7-1.5-1.5v-8.6
					C65.7,85.7,66.4,85,67.2,85z"/>
				<path class="st3" d="M86.9,85h11.8c0.8,0,1.5,0.7,1.5,1.5v8.6c0,0.8-0.7,1.5-1.5,1.5H86.9c-0.8,0-1.5-0.7-1.5-1.5v-8.6
					C85.4,85.7,86.1,85,86.9,85z"/>
				<path class="st3" d="M106.6,85h11.8c0.8,0,1.5,0.7,1.5,1.5v8.6c0,0.8-0.7,1.5-1.5,1.5h-11.8c-0.8,0-1.5-0.7-1.5-1.5v-8.6
					C105.2,85.7,105.8,85,106.6,85z"/>
			</g>
			<path class="st3" d="M88.8,43.4h11.8c0.8,0,1.5,0.7,1.5,1.5v8.6c0,0.8-0.7,1.5-1.5,1.5H88.8c-0.8,0-1.5-0.7-1.5-1.5v-8.6
				C87.3,44.1,88,43.4,88.8,43.4z"/>
			<path class="st4" d="M88.8,83.1h11.8c0.8,0,1.5,0.7,1.5,1.5v8.6c0,0.8-0.7,1.5-1.5,1.5H88.8c-0.8,0-1.5-0.7-1.5-1.5v-8.6
				C87.3,83.8,88,83.1,88.8,83.1z"/>
			<path class="st5" d="M49.4,63.3h11.8c0.8,0,1.5,0.7,1.5,1.5v8.6c0,0.8-0.7,1.5-1.5,1.5H49.4c-0.8,0-1.5-0.7-1.5-1.5v-8.6
				C47.9,63.9,48.6,63.3,49.4,63.3z"/>
		</g>
	</g>
	<g>
		<path class="st6" d="M137.6,69.5c-0.4,2.9-1.3,18.5-1,22.1c0.4,3.6-17.1,4.7-14.9,0.7c2.3-4,0.7-17.2,0.7-17.2L137.6,69.5z"/>
		<path class="st7" d="M136.4,69.9l-14,5.1c0,0,0.9,7.7,0.4,13.1c5.7-2.4,4.5-7.2,4.5-9.8C127.3,76,136.4,70.3,136.4,69.9z"/>
		<polygon class="st6" points="118,70.5 115.9,75.1 118.5,76.2 		"/>
		<path class="st6" d="M118,69c-1.3,8.9-3.5,17.8,7.3,16.3s12.5-15.3,12.4-17.9C137.5,53.5,120.5,51.5,118,69z"/>
		<path class="st8" d="M139,59.2c0.8-0.4,1.4-1.2,1.4-1.2l-0.5-0.4c-0.2,0.2-0.7,0.8-1.3,1c0-0.1,0-0.2,0-0.3
			c0-3.6-16.8-2.6-19.5,0.7c-1.6,1.9,0.1,2.4,2.9,2.3c-0.2,0.2-0.4,0.4-0.4,0.6c-1.9,9.1,6.9,18.1,8,18.9h7.2
			C136.8,80.9,144.2,62.6,139,59.2z"/>
		<path class="st6" d="M161.3,133.7c-1-4.2-5.9-22.6-9.9-31.4l-10.1,2.1c0,0,6.5,21.7,9.9,29.8c-0.8,4.4-4.9,24.7-7.4,30.4
			c-1.1,2.6,3.1,3.7,4.1,2.4s12.6-24.5,13.2-31.7c0-0.2,0-0.3,0-0.4C161.3,134.5,161.3,134.1,161.3,133.7z"/>
		<path class="st9" d="M146.1,93.3c5.3,4.1,13.5,21.8,13.5,21.8l-17.3,4.5C142.3,119.5,132.2,82.4,146.1,93.3z"/>
		<path class="st10" d="M154.4,162.5c-2.8,2.5-5.8,4.7-9.1,6.7c-11.4,6.9-25.6,11.1-40.4,14.5c0-0.2,0-0.3,0-0.5
			c0.5-8.2,1.3-17.5,2.6-23.5l37.9,0.8l8.9,0.2C154.4,161,154.4,161.7,154.4,162.5z"/>
		
			<linearGradient id="SVGID_1_" gradientUnits="userSpaceOnUse" x1="106.439" y1="74.3601" x2="154.739" y2="74.3601" gradientTransform="matrix(1 0 0 -1 0 200)">
			<stop  offset="0" style="stop-color:#51B9B1"/>
			<stop  offset="1" style="stop-color:#66C0BB"/>
		</linearGradient>
		<path class="st11" d="M133.5,89.1c10.4,0.3,13.9,3.9,15.7,9.9c2,6.9,5.6,48.5,5.6,62.4c0,0-31.1,2.2-48.3-0.6
			c5.4-18.2,6-51.1,6.1-60.8C112.6,92.6,120.3,88.6,133.5,89.1z"/>
		<path class="st9" d="M112.5,102.3c-0.1,4.8-0.3,12.5-0.8,21c4.4-5.3,8.7-11.6,9-16.2C121.1,100.6,117.4,100.2,112.5,102.3z"/>
		<path class="st6" d="M118.4,104.6l-5.3-8.8c0,0-14.6,10.5-22.4,17C86.8,106,80.2,93.7,78.8,89l0,0c0.7-1.2,1.5-3.3,1.7-4.6v-0.1
			c0-0.1,0-0.1,0-0.2s0-0.2,0-0.2c0-0.2,0-0.3,0-0.4c0-2.1-0.9-3.4-0.5-6.1c0.3-1.9-1.9-1.2-2.3,0c0,0-0.1,0.5-0.2,1.1
			c-0.5-1.5-3.8-9.3-5-9.5c-1.4-0.2-0.5,1.9,0.3,4c0.3,0.9,0.6,1.6,0.8,2.3c-1.8,0.4-3.4,3.5-3.7,4.8c-0.3,1.4,3.1,8.6,4,9.9
			c0.1,0.1,0.2,0.2,0.2,0.2c0.7,3.9,6.5,26.7,10.7,32.2c2.6,3.4,5.8,3.1,7.8,1.3C97.2,120.8,111.7,110.8,118.4,104.6z"/>
		
			<linearGradient id="SVGID_2_" gradientUnits="userSpaceOnUse" x1="98.7338" y1="94.034" x2="127.3174" y2="94.034" gradientTransform="matrix(1 0 0 -1 0 200)">
			<stop  offset="0" style="stop-color:#51B9B1"/>
			<stop  offset="1" style="stop-color:#66C0BB"/>
		</linearGradient>
		<path class="st12" d="M127.3,95.7c-0.5,9.7-18.6,26.4-18.6,26.4l-10-16.4C98.7,105.7,128.3,78.1,127.3,95.7z"/>
		<path class="st6" d="M121.7,71.7c-0.4,2.3-1,4.6,1.2,4.5c2.2-0.2,2.7-3.8,2.8-4.5C125.9,68,122.5,67.1,121.7,71.7z"/>
	</g>
</g>
</svg>
