<svg xmlns="http://www.w3.org/2000/svg" width="12.997" height="12.997" viewBox="0 0 12.997 12.997">
  <g id="Icon" transform="translate(0.5 0.5)">
    <g id="Icon-2" data-name="Icon" transform="translate(0 0)">
      <path id="Rect" d="M2-.5H5.8A2.5,2.5,0,0,1,8.3,2V5.8A2.5,2.5,0,0,1,5.8,8.3H2A2.5,2.5,0,0,1-.5,5.8V2A2.5,2.5,0,0,1,2-.5ZM5.8,7.3A1.5,1.5,0,0,0,7.3,5.8V2A1.5,1.5,0,0,0,5.8.5H2A1.5,1.5,0,0,0,.5,2V5.8A1.5,1.5,0,0,0,2,7.3Z" transform="translate(0 4.192)" fill="#64a8ac"/>
      <path id="Path" d="M8.271,9.972h-.6a.5.5,0,0,1,0-1h.6a.7.7,0,0,0,.7-.7v-5.4a.7.7,0,0,0-.7-.7h-5.4a.7.7,0,0,0-.7.7v.6a.5.5,0,0,1-1,0v-.6a1.7,1.7,0,0,1,1.7-1.7h5.4a1.7,1.7,0,0,1,1.7,1.7v5.4A1.7,1.7,0,0,1,8.271,9.972Z" transform="translate(2.526 -1.667)" fill="#64a8ac"/>
    </g>
  </g>
</svg>
