<svg xmlns="http://www.w3.org/2000/svg" width="216" height="47.473" viewBox="0 0 216 47.473">
  <g id="グループ_18" data-name="グループ 18" transform="translate(-192.167 -628.305)">
    <g id="グループ_4" data-name="グループ 4" transform="translate(192.167 628.305)">
      <path id="パス_8" data-name="パス 8" d="M244.643,673.818h-3.919V647.8a15.573,15.573,0,1,0-31.147,0v26.016h-3.919V647.8a19.492,19.492,0,1,1,38.985,0Z" transform="translate(-199.606 -628.305)" fill="#fff"/>
      <rect id="長方形_4" data-name="長方形 4" width="51.09" height="3.919" transform="translate(0 43.554)" fill="#fff"/>
      <path id="パス_9" data-name="パス 9" d="M231.433,669.888v13.9a.98.98,0,0,0,.98.98h13.9a.979.979,0,0,0,.98-.98v-13.9a.98.98,0,0,0-.98-.979h-13.9A.98.98,0,0,0,231.433,669.888Zm11.79,10.615-.124.124a.382.382,0,0,1-.539,0l-1.938-1.938a2.17,2.17,0,1,1,.628-.7l1.973,1.972A.382.382,0,0,1,243.223,680.5Z" transform="translate(-213.818 -650.687)" fill="#fff"/>
    </g>
    <g id="グループ_6" data-name="グループ 6" transform="translate(259.267 639.145)">
      <rect id="長方形_5" data-name="長方形 5" width="148.899" height="3.807" transform="translate(0 32.826)" fill="#fff"/>
      <g id="グループ_5" data-name="グループ 5" transform="translate(0)">
        <path id="パス_10" data-name="パス 10" d="M343.881,667.338v-14.9h6.156v14.668c0,5.053,2.2,7.143,5.927,7.143,3.762,0,5.927-2.09,5.927-7.143V652.443h6.08v14.9c0,7.827-4.484,12.159-12.045,12.159S343.881,675.166,343.881,667.338Z" transform="translate(-343.881 -652.443)" fill="#fff"/>
        <path id="パス_11" data-name="パス 11" d="M439.756,652.443v26.6H434.7l-13.261-16.149v16.149h-6.08v-26.6h5.092l13.223,16.149V652.443Z" transform="translate(-383.295 -652.443)" fill="#fff"/>
        <path id="パス_12" data-name="パス 12" d="M488.029,652.443h12.083c8.7,0,14.668,5.244,14.668,13.3s-5.966,13.3-14.668,13.3H488.029Zm11.779,21.545c5.282,0,8.739-3.154,8.739-8.245s-3.457-8.245-8.739-8.245h-5.624v16.491Z" transform="translate(-423.363 -652.443)" fill="#fff"/>
        <path id="パス_13" data-name="パス 13" d="M582.814,674.1v4.94H562.219v-26.6h20.1v4.94H568.336v5.775h12.349v4.788H568.336V674.1Z" transform="translate(-464.271 -652.443)" fill="#fff"/>
        <path id="パス_14" data-name="パス 14" d="M640.228,679.042l-5.129-7.409h-5.661v7.409h-6.156v-26.6h11.514c7.105,0,11.551,3.687,11.551,9.652a8.648,8.648,0,0,1-5.471,8.4l5.965,8.55Zm-5.775-21.583h-5.015v9.271h5.015c3.762,0,5.661-1.748,5.661-4.635C640.114,659.169,638.215,657.459,634.453,657.459Z" transform="translate(-497.94 -652.443)" fill="#fff"/>
      </g>
    </g>
  </g>
</svg>
