<svg xmlns="http://www.w3.org/2000/svg" width="182" height="40" viewBox="0 0 182 40">
  <g id="グループ_7" data-name="グループ 7" transform="translate(-192.167 -628.305)">
    <g id="グループ_4" data-name="グループ 4" transform="translate(192.167 628.305)">
      <path id="パス_8" data-name="パス 8" d="M238.506,666.654h-3.3V644.733a13.122,13.122,0,1,0-26.244,0v21.921h-3.3V644.733a16.424,16.424,0,1,1,32.848,0Z" transform="translate(-200.558 -628.305)" fill="#122823"/>
      <rect id="長方形_4" data-name="長方形 4" width="43.048" height="3.302" transform="translate(0 36.698)" fill="#122823"/>
      <path id="パス_9" data-name="パス 9" d="M231.433,669.734v11.712a.825.825,0,0,0,.826.825H243.97a.825.825,0,0,0,.826-.825V669.734a.825.825,0,0,0-.826-.825H232.259A.825.825,0,0,0,231.433,669.734Zm9.934,8.944-.1.1a.322.322,0,0,1-.454,0l-1.633-1.633a1.828,1.828,0,1,1,.53-.588l1.662,1.662A.322.322,0,0,1,241.367,678.678Z" transform="translate(-216.591 -653.555)" fill="#122823"/>
    </g>
    <g id="グループ_6" data-name="グループ 6" transform="translate(248.705 637.439)">
      <rect id="長方形_5" data-name="長方形 5" width="125.461" height="3.207" transform="translate(0 27.659)" fill="#122823"/>
      <g id="グループ_5" data-name="グループ 5" transform="translate(0)">
        <path id="パス_10" data-name="パス 10" d="M343.881,664.994V652.443h5.187V664.8c0,4.258,1.857,6.019,4.994,6.019,3.169,0,4.994-1.761,4.994-6.019V652.443h5.123v12.551c0,6.6-3.778,10.245-10.149,10.245S343.881,671.589,343.881,664.994Z" transform="translate(-343.881 -652.443)" fill="#122823"/>
        <path id="パス_11" data-name="パス 11" d="M435.916,652.443v22.412h-4.258l-11.173-13.607v13.607h-5.123V652.443h4.29l11.142,13.607V652.443Z" transform="translate(-388.343 -652.443)" fill="#122823"/>
        <path id="パス_12" data-name="パス 12" d="M488.029,652.443H498.21c7.332,0,12.359,4.419,12.359,11.206s-5.027,11.206-12.359,11.206H488.029Zm9.925,18.153c4.45,0,7.364-2.657,7.364-6.948s-2.913-6.947-7.364-6.947h-4.739V670.6Z" transform="translate(-433.542 -652.443)" fill="#122823"/>
        <path id="パス_13" data-name="パス 13" d="M579.572,670.693v4.162H562.219V652.443h16.937v4.162H567.373v4.866h10.405v4.034H567.373v5.187Z" transform="translate(-479.689 -652.443)" fill="#122823"/>
        <path id="パス_14" data-name="パス 14" d="M637.56,674.855l-4.322-6.243h-4.77v6.243h-5.187V652.443h9.7c5.987,0,9.733,3.106,9.733,8.133a7.287,7.287,0,0,1-4.61,7.076l5.026,7.2Zm-4.866-18.186h-4.226v7.812h4.226c3.17,0,4.77-1.473,4.77-3.906C637.464,658.11,635.864,656.669,632.694,656.669Z" transform="translate(-517.67 -652.443)" fill="#122823"/>
      </g>
    </g>
  </g>
</svg>
