<svg id="question_2_" data-name="question(2)" xmlns="http://www.w3.org/2000/svg" width="16" height="16" viewBox="0 0 16 16">
  <g id="グループ_985" data-name="グループ 985">
    <path id="パス_200" data-name="パス 200" d="M8,0a8,8,0,1,0,8,8A8,8,0,0,0,8,0ZM7.763,11.744a.811.811,0,0,1,0-1.622.811.811,0,0,1,0,1.622Zm1.2-4.1a1.323,1.323,0,0,0-.59,1.316c0,.2-.105.432-.621.432-.432,0-.579-.158-.579-.706a1.928,1.928,0,0,1,.706-1.6c.347-.295.937-.621.937-1.19,0-.484-.421-.716-.948-.716-1.074,0-.842.811-1.411.811a.6.6,0,0,1-.632-.6c0-.569.653-1.411,2.075-1.411,1.348,0,2.243.748,2.243,1.738A2.7,2.7,0,0,1,8.964,7.648Z" fill="#717e7b"/>
  </g>
</svg>
