<svg xmlns="http://www.w3.org/2000/svg" width="16" height="16" viewBox="0 0 16 16">
  <g id="g3051" transform="translate(0.031 682.696)">
    <g id="g3053" transform="translate(0.469 -682.196)">
      <g id="グループ_983" data-name="グループ 983" transform="translate(0 0)">
        <g id="g3061" transform="translate(0 2.556)">
          <path id="path3063" d="M-335.467,12.944h-9.955a1.746,1.746,0,0,1-1.744-1.744V1.244A1.746,1.746,0,0,1-345.421-.5h6.844a.5.5,0,0,1,.5.5.5.5,0,0,1-.5.5h-6.844a.745.745,0,0,0-.744.744V11.2a.745.745,0,0,0,.744.744h9.955a.745.745,0,0,0,.744-.744V4.355a.5.5,0,0,1,.5-.5.5.5,0,0,1,.5.5V11.2A1.746,1.746,0,0,1-335.467,12.944Z" transform="translate(346.666)" fill="#122823"/>
        </g>
        <g id="g3065" transform="translate(5.579)">
          <path id="path3067" d="M-388.06-83.735a1.115,1.115,0,0,1,.793.329l.88.88a1.124,1.124,0,0,1,0,1.587l-7.039,7.039a.5.5,0,0,1-.255.137l-2.2.44a.5.5,0,0,1-.452-.137.5.5,0,0,1-.137-.452l.44-2.2a.5.5,0,0,1,.137-.255l7.039-7.039A1.115,1.115,0,0,1-388.06-83.735Zm-5.966,9.021,6.932-6.932a.122.122,0,0,0,0-.173l-.88-.88a.12.12,0,0,0-.086-.036.12.12,0,0,0-.086.036l-6.932,6.932-.263,1.316Z" transform="translate(395.979 83.235)" fill="#122823"/>
        </g>
        <g id="g3069" transform="translate(12.178 1.062)">
          <path id="path3071" d="M1.76,2.26a.5.5,0,0,1-.354-.146L-.354.354a.5.5,0,0,1,0-.707.5.5,0,0,1,.707,0l1.76,1.76a.5.5,0,0,1-.354.854Z" fill="#122823"/>
        </g>
      </g>
    </g>
  </g>
</svg>
