<svg xmlns="http://www.w3.org/2000/svg" xmlns:xlink="http://www.w3.org/1999/xlink" width="16" height="16" viewBox="0 0 16 16">
  <defs>
    <clipPath id="clip-path">
      <path id="path123" d="M0-682.665H16v16H0Z" transform="translate(0 682.665)"/>
    </clipPath>
  </defs>
  <g id="g117" transform="translate(0 682.665)">
    <g id="g119" transform="translate(0 -682.665)">
      <g id="g121" clip-path="url(#clip-path)">
        <g id="g127" transform="translate(0.469 0.469)">
          <path id="path129" d="M-378.57-72.874h1a1.506,1.506,0,0,1,1.5,1.5v.317a6.491,6.491,0,0,1,.966.4l.225-.225a1.494,1.494,0,0,1,1.064-.441,1.514,1.514,0,0,1,1.064.441l.71.71a1.514,1.514,0,0,1,.441,1.063,1.494,1.494,0,0,1-.441,1.064l-.224.224a6.493,6.493,0,0,1,.4.966h.317a1.506,1.506,0,0,1,1.5,1.5v1a1.506,1.506,0,0,1-1.5,1.5h-.317a6.494,6.494,0,0,1-.4.966l.225.225a1.494,1.494,0,0,1,.441,1.064,1.514,1.514,0,0,1-.441,1.064l-.71.71a1.514,1.514,0,0,1-1.064.441,1.494,1.494,0,0,1-1.064-.441l-.224-.224a6.492,6.492,0,0,1-.966.4v.317a1.506,1.506,0,0,1-1.5,1.5h-1a1.506,1.506,0,0,1-1.5-1.5v-.317a6.493,6.493,0,0,1-.966-.4l-.225.225a1.494,1.494,0,0,1-1.064.441,1.514,1.514,0,0,1-1.064-.441l-.71-.71a1.514,1.514,0,0,1-.441-1.063,1.494,1.494,0,0,1,.441-1.064l.224-.224a6.491,6.491,0,0,1-.4-.966h-.317a1.506,1.506,0,0,1-1.5-1.5v-1a1.506,1.506,0,0,1,1.5-1.5h.317a6.493,6.493,0,0,1,.4-.966l-.225-.225a1.493,1.493,0,0,1-.441-1.064,1.514,1.514,0,0,1,.441-1.064l.71-.71a1.514,1.514,0,0,1,1.064-.441,1.494,1.494,0,0,1,1.064.441l.224.224a6.491,6.491,0,0,1,.966-.4v-.317A1.506,1.506,0,0,1-378.57-72.874Zm3.562,3.341a.5.5,0,0,1-.254-.07,5.493,5.493,0,0,0-1.424-.591.5.5,0,0,1-.375-.484v-.692a.5.5,0,0,0-.5-.5h-1a.5.5,0,0,0-.5.5v.692a.5.5,0,0,1-.375.484,5.494,5.494,0,0,0-1.424.591.5.5,0,0,1-.608-.077l-.49-.49a.5.5,0,0,0-.357-.148.507.507,0,0,0-.356.148l-.71.71a.507.507,0,0,0-.148.356.5.5,0,0,0,.148.356l.49.49a.5.5,0,0,1,.077.608,5.5,5.5,0,0,0-.591,1.424.5.5,0,0,1-.484.375h-.692a.5.5,0,0,0-.5.5v1a.5.5,0,0,0,.5.5h.692a.5.5,0,0,1,.484.375,5.5,5.5,0,0,0,.591,1.424.5.5,0,0,1-.077.608l-.49.49a.5.5,0,0,0-.148.357.507.507,0,0,0,.148.356l.71.71a.507.507,0,0,0,.356.148.5.5,0,0,0,.356-.148l.49-.49a.5.5,0,0,1,.608-.077,5.494,5.494,0,0,0,1.424.591.5.5,0,0,1,.375.484v.692a.5.5,0,0,0,.5.5h1a.5.5,0,0,0,.5-.5v-.692a.5.5,0,0,1,.375-.484,5.494,5.494,0,0,0,1.424-.591.5.5,0,0,1,.608.077l.49.49a.5.5,0,0,0,.357.148.507.507,0,0,0,.356-.148l.71-.71a.507.507,0,0,0,.148-.356.5.5,0,0,0-.148-.356l-.49-.49a.5.5,0,0,1-.077-.608,5.5,5.5,0,0,0,.591-1.424.5.5,0,0,1,.484-.375h.692a.5.5,0,0,0,.5-.5v-1a.5.5,0,0,0-.5-.5h-.692a.5.5,0,0,1-.484-.375,5.5,5.5,0,0,0-.591-1.424.5.5,0,0,1,.077-.608l.49-.49a.5.5,0,0,0,.148-.357.507.507,0,0,0-.148-.356l-.71-.71a.507.507,0,0,0-.356-.148.5.5,0,0,0-.357.148l-.49.49A.5.5,0,0,1-375.008-69.533Z" transform="translate(385.599 72.374)" fill="#122823"/>
        </g>
        <g id="g131" transform="translate(4.988 4.988)">
          <path id="path133" d="M-125.521-.5a3.516,3.516,0,0,1,3.513,3.513,3.516,3.516,0,0,1-3.513,3.513,3.516,3.516,0,0,1-3.513-3.513A3.516,3.516,0,0,1-125.521-.5Zm0,6.025a2.515,2.515,0,0,0,2.513-2.513A2.515,2.515,0,0,0-125.521.5a2.515,2.515,0,0,0-2.513,2.513A2.515,2.515,0,0,0-125.521,5.525Z" transform="translate(128.533)" fill="#122823"/>
        </g>
      </g>
    </g>
  </g>
</svg>
