<svg xmlns="http://www.w3.org/2000/svg" xmlns:xlink="http://www.w3.org/1999/xlink" width="20" height="20" viewBox="0 0 20 20">
  <defs>
    <linearGradient id="linear-gradient" x1="0.15" y1="0.143" x2="0.85" y2="0.857" gradientUnits="objectBoundingBox">
      <stop offset="0" stop-color="#122823"/>
      <stop offset="1" stop-color="#717e7b"/>
    </linearGradient>
  </defs>
  <g id="Layer_2" data-name="Layer 2" transform="translate(0 -0.174)">
    <g id="Layer_1" data-name="Layer 1" transform="translate(0 0.133)">
      <g id="Question_mark" data-name="Question mark">
        <g id="BG">
          <rect id="長方形_262" data-name="長方形 262" width="20" height="20" rx="10" transform="translate(0 0.041)" fill="url(#linear-gradient)"/>
        </g>
        <path id="パス_365" data-name="パス 365" d="M167.67,125.187a2.524,2.524,0,0,1,.426-1.344,3.279,3.279,0,0,1,1.243-1.128,3.914,3.914,0,0,1,1.906-.447,4.07,4.07,0,0,1,1.787.374,2.9,2.9,0,0,1,1.2,1.016,2.492,2.492,0,0,1,.422,1.4,2.158,2.158,0,0,1-.241,1.04,3.18,3.18,0,0,1-.573.771q-.332.325-1.19,1.093a4.858,4.858,0,0,0-.381.381,1.543,1.543,0,0,0-.213.3,1.459,1.459,0,0,0-.108.272q-.038.136-.115.478a.777.777,0,0,1-.831.726.849.849,0,0,1-.611-.237.932.932,0,0,1-.248-.705,2.477,2.477,0,0,1,.663-1.77,11.032,11.032,0,0,1,.81-.772q.447-.391.646-.59a2,2,0,0,0,.335-.443,1.072,1.072,0,0,0,.136-.531,1.234,1.234,0,0,0-.415-.943,1.518,1.518,0,0,0-1.072-.384,1.483,1.483,0,0,0-1.131.387,3.091,3.091,0,0,0-.614,1.142q-.237.789-.9.789a.885.885,0,0,1-.66-.276A.844.844,0,0,1,167.67,125.187Zm3.407,7.652a1.1,1.1,0,0,1-.744-.276.966.966,0,0,1-.318-.772.994.994,0,0,1,.307-.74,1.038,1.038,0,0,1,.754-.3,1.025,1.025,0,0,1,1.04,1.04.974.974,0,0,1-.314.768A1.06,1.06,0,0,1,171.077,132.839Z" transform="translate(-161.043 -117.63)" fill="#fff"/>
      </g>
    </g>
  </g>
</svg>
